<?xml version="1.0" standalone="no"?>
<!DOCTYPE svg PUBLIC "-//W3C//DTD SVG 20010904//EN"
 "http://www.w3.org/TR/2001/REC-SVG-20010904/DTD/svg10.dtd">
<svg version="1.0" xmlns="http://www.w3.org/2000/svg"
 width="1257.000000pt" height="1257.000000pt" viewBox="0 0 1257.000000 1257.000000"
 preserveAspectRatio="xMidYMid meet">
<metadata>
Created by potrace 1.14, written by Peter Selinger 2001-2017
</metadata>
<g transform="translate(0.000000,1257.000000) scale(0.100000,-0.100000)"
fill="#000000" stroke="none">
<path d="M6447 12396 c4 -5 -1 -7 -11 -3 -11 4 -15 3 -11 -4 4 -6 14 -8 22 -5
8 3 11 1 8 -4 -3 -6 -2 -10 3 -10 6 0 13 7 16 16 8 21 9 20 -13 20 -11 0 -17
-5 -14 -10z"/>
<path d="M6510 12406 c0 -2 8 -10 18 -17 15 -13 16 -12 3 4 -13 16 -21 21 -21
13z"/>
<path d="M6674 12385 c-16 -24 -54 -35 -54 -15 0 5 7 7 15 4 8 -4 15 -1 15 6
0 6 -4 8 -10 5 -5 -3 -10 -1 -10 6 0 7 -6 4 -14 -6 -8 -11 -12 -25 -9 -32 3
-7 0 -13 -6 -13 -6 0 -10 5 -8 12 3 20 -75 16 -97 -4 -19 -17 -42 -15 -30 3 3
5 9 7 13 5 4 -3 13 4 19 15 12 19 12 19 -10 7 -13 -7 -36 -13 -53 -13 -36 -1
-75 -24 -75 -45 -1 -11 -4 -10 -16 5 -10 12 -14 14 -12 5 3 -8 -1 -20 -8 -27
-19 -19 -26 -15 -14 7 10 19 10 20 -10 8 -11 -7 -18 -19 -15 -27 4 -11 3 -12
-10 -1 -12 10 -15 10 -15 0 0 -8 -3 -11 -6 -7 -3 3 -2 12 2 19 5 7 9 16 9 19
0 4 12 21 27 40 15 18 25 35 22 38 -3 3 -9 -1 -14 -9 -5 -8 -22 -30 -39 -49
-17 -19 -28 -37 -26 -42 3 -4 -5 -5 -17 -1 -12 3 -19 1 -15 -5 3 -5 0 -10 -8
-10 -18 0 -20 14 -3 19 6 2 13 14 15 27 2 14 -1 20 -8 16 -6 -4 -8 -13 -5 -21
3 -8 0 -11 -10 -7 -8 3 -14 -1 -14 -8 -1 -27 -26 28 -29 64 -1 5 -6 5 -11 2
-6 -4 -8 -10 -5 -15 3 -5 1 -20 -5 -34 -5 -14 -6 -25 -2 -25 17 3 32 -2 32 -9
0 -4 -11 -9 -24 -10 -19 -1 -24 2 -21 17 5 27 -22 35 -35 10 -6 -10 -8 -24 -5
-29 3 -5 2 -11 -3 -14 -15 -9 -13 56 3 80 10 15 11 25 4 29 -5 4 -19 -15 -31
-43 -22 -52 -67 -96 -48 -47 6 15 6 26 -1 30 -5 4 -14 -7 -20 -24 -6 -17 -15
-28 -20 -25 -5 3 -9 -2 -9 -10 0 -9 -7 -16 -15 -16 -18 0 -19 11 -2 29 10 11
9 12 -1 6 -11 -6 -12 -3 -3 13 15 29 14 37 -5 22 -12 -11 -15 -11 -12 1 2 9
-4 13 -19 11 -13 -2 -23 2 -23 8 0 6 4 9 9 6 5 -4 8 2 7 11 -2 10 2 21 8 25 7
5 6 8 -4 8 -8 0 -23 -14 -32 -30 -9 -17 -13 -30 -7 -30 6 0 8 -4 4 -9 -3 -6
-14 -9 -25 -8 -10 1 -16 5 -14 9 3 5 10 6 15 3 5 -3 6 1 3 9 -5 13 -8 13 -20
1 -8 -7 -14 -18 -14 -24 0 -15 -27 -14 -36 1 -5 8 -10 7 -18 -4 -15 -20 -46
-31 -43 -15 1 8 -11 12 -35 12 -33 -1 -36 1 -24 15 7 8 16 22 20 30 4 8 -2 3
-14 -12 -12 -16 -27 -25 -35 -21 -8 3 -15 0 -15 -7 0 -6 5 -8 10 -5 6 3 10 1
10 -5 0 -7 -6 -10 -14 -7 -7 3 -18 1 -23 -4 -6 -6 -10 -4 -10 5 0 8 3 13 7 11
4 -2 7 2 7 9 0 8 -6 12 -14 9 -7 -3 -13 -13 -13 -23 0 -11 -5 -22 -11 -26 -8
-4 -9 1 -4 17 5 19 4 21 -5 9 -9 -11 -13 -12 -17 -2 -8 21 -21 13 -17 -10 4
-21 4 -21 -4 -3 -10 21 -5 48 7 40 4 -2 8 2 8 10 0 25 -14 17 -27 -15 -13 -31
-35 -54 -23 -24 5 14 3 15 -15 5 -12 -7 -23 -7 -27 -2 -7 12 4 18 32 16 15 -2
20 2 15 13 -4 11 -7 12 -10 4 -2 -7 -8 -12 -13 -12 -6 0 -7 4 -4 10 4 6 -1 7
-11 3 -13 -5 -15 -3 -9 8 5 8 4 11 -1 6 -5 -5 -9 -16 -9 -25 0 -10 -7 -16 -15
-14 -11 2 -10 -2 4 -12 17 -14 16 -15 -18 -9 -24 4 -36 2 -36 -6 0 -7 5 -9 12
-5 7 4 8 3 4 -5 -4 -6 -12 -9 -17 -6 -5 4 -9 2 -9 -4 0 -6 -8 -7 -17 -4 -13 5
-15 2 -10 -11 4 -11 3 -15 -4 -10 -6 3 -9 15 -6 25 3 10 1 22 -4 25 -5 3 -9
-2 -9 -11 0 -8 -10 -19 -22 -24 -25 -9 -51 -4 -43 9 3 4 -2 13 -10 20 -10 9
-15 9 -15 1 0 -6 5 -11 11 -11 5 0 7 -5 4 -10 -5 -8 -11 -8 -19 -1 -10 8 -18
5 -31 -9 -10 -12 -25 -18 -33 -15 -10 4 -12 0 -8 -11 6 -15 4 -15 -11 -3 -9 8
-14 9 -11 4 4 -6 2 -17 -3 -25 -8 -13 -10 -13 -18 -1 -5 8 -18 12 -29 8 -12
-2 -23 0 -26 7 -3 6 -4 2 -3 -9 2 -11 9 -19 16 -17 7 1 10 -2 6 -8 -5 -8 -11
-8 -19 -1 -7 6 -16 8 -19 4 -4 -3 -7 -1 -7 6 0 8 -5 9 -19 1 -14 -7 -22 -7
-26 0 -9 15 -27 1 -21 -16 3 -7 0 -16 -6 -20 -7 -4 -8 -3 -4 4 10 16 0 15 -40
-4 -19 -9 -34 -21 -34 -26 0 -5 -5 -6 -12 -2 -7 5 -9 2 -5 -8 3 -9 -2 -23 -12
-32 -15 -14 -18 -14 -18 -1 0 8 5 11 10 8 6 -3 7 -1 3 6 -6 9 -11 9 -24 -1
-10 -8 -13 -9 -9 -1 4 6 2 15 -4 19 -7 4 -9 3 -6 -3 4 -6 0 -19 -8 -29 -12
-15 -16 -16 -23 -6 -7 11 -10 10 -15 -3 -5 -11 -3 -14 6 -10 6 4 3 0 -7 -9
-10 -8 -23 -13 -29 -9 -5 3 -7 -4 -3 -18 6 -20 5 -21 -4 -6 -6 9 -8 23 -4 30
4 6 4 9 -1 5 -4 -4 -14 -3 -21 2 -9 8 -12 6 -10 -7 0 -10 5 -21 10 -24 5 -4
-1 -10 -13 -14 -12 -3 -20 -9 -17 -13 2 -4 -5 -16 -16 -27 -11 -11 -19 -15
-18 -10 5 23 -1 45 -11 45 -5 0 -8 -4 -4 -9 3 -5 1 -12 -4 -15 -5 -4 -12 -2
-16 4 -11 18 -26 0 -20 -23 5 -16 4 -18 -3 -8 -7 9 -12 10 -16 2 -4 -6 -13 -8
-19 -4 -7 4 -5 -2 3 -12 14 -17 13 -18 -4 -12 -16 6 -17 5 -7 -7 10 -12 9 -15
-8 -13 -11 0 -17 5 -15 9 3 4 -3 8 -13 8 -11 0 -24 5 -31 12 -7 7 -12 8 -12 2
0 -5 5 -15 12 -22 7 -7 8 -12 2 -12 -5 0 -2 -5 6 -11 13 -9 13 -10 0 -6 -24 7
-50 -11 -44 -31 5 -14 4 -15 -5 -2 -9 13 -15 8 -13 -11 1 -3 -11 -6 -26 -5
-17 1 -26 -4 -24 -12 1 -8 -2 -11 -7 -8 -5 4 -11 1 -13 -6 -3 -7 -7 -5 -11 6
-4 10 -3 15 3 11 6 -3 10 -1 10 5 0 17 -23 6 -26 -12 -1 -9 -6 -24 -12 -33 -8
-16 -11 -15 -31 6 -12 13 -22 20 -21 14 5 -23 -1 -34 -15 -29 -8 4 -15 2 -15
-4 0 -5 7 -13 16 -16 8 -3 12 -11 9 -17 -4 -5 -10 -8 -13 -5 -3 3 -11 1 -18
-5 -10 -8 -12 -6 -10 8 3 14 -2 19 -19 21 -13 1 -27 -3 -31 -10 -5 -7 -3 -8 6
-3 9 5 11 4 6 -4 -6 -9 -11 -9 -21 -1 -12 10 -45 4 -45 -9 0 -4 5 -12 12 -19
7 -7 8 -12 2 -12 -6 0 -16 10 -21 23 -10 20 -11 21 -18 3 -5 -11 -3 -21 6 -27
12 -7 12 -10 0 -21 -8 -7 -11 -8 -8 -2 4 7 0 17 -8 24 -8 7 -12 17 -8 23 3 6
1 7 -5 3 -6 -4 -8 -14 -5 -23 5 -12 2 -15 -10 -10 -10 4 -16 2 -14 -6 1 -7 -8
-11 -24 -9 -15 2 -35 -6 -50 -18 -13 -12 -18 -19 -11 -15 6 3 12 2 12 -4 0
-15 -18 -23 -32 -14 -7 4 -22 6 -33 5 -17 -2 -17 -1 -5 7 9 7 10 11 3 11 -20
0 -24 -18 -6 -29 11 -6 13 -11 5 -11 -7 0 -24 11 -37 25 -14 13 -25 20 -25 14
0 -6 -6 -7 -12 -3 -10 6 -10 5 -1 -7 13 -16 14 -61 1 -53 -4 3 -5 11 -1 19 11
30 -8 14 -22 -17 -8 -18 -14 -27 -15 -20 0 14 -30 17 -30 2 0 -6 -9 -6 -25 0
-21 8 -25 6 -26 -8 0 -14 -2 -14 -7 -2 -4 8 -16 16 -27 18 -18 2 -19 2 -2 -8
21 -13 13 -32 -10 -23 -12 5 -15 2 -10 -10 7 -18 -13 -19 -25 -2 -5 6 -8 4 -8
-5 0 -13 -1 -13 -10 0 -8 13 -10 12 -10 -4 0 -18 -1 -18 -27 -1 l-28 18 20
-23 c11 -13 14 -20 8 -16 -22 12 -38 -5 -19 -20 12 -8 14 -14 6 -19 -14 -9
-42 14 -33 28 3 6 1 7 -6 3 -6 -4 -8 -12 -5 -18 4 -6 -3 -5 -16 2 -15 8 -20 8
-16 1 4 -6 0 -11 -9 -11 -10 0 -14 -5 -10 -12 4 -7 0 -5 -8 5 -10 12 -17 15
-22 7 -5 -8 -13 -6 -26 6 -17 15 -24 13 -20 -8 2 -15 -30 -8 -35 7 -4 8 -10
12 -16 9 -5 -3 -4 -12 3 -20 10 -12 9 -13 -6 -8 -13 5 -16 4 -11 -4 4 -7 2
-12 -4 -12 -7 0 -10 7 -6 15 8 23 -10 18 -28 -7 -14 -20 -15 -21 -10 -3 4 15
3 16 -4 6 -7 -9 -12 -10 -16 -2 -4 6 -13 11 -19 11 -7 0 1 -10 16 -23 34 -27
29 -63 -7 -52 -49 14 -52 13 -52 -10 0 -13 4 -21 8 -19 4 3 8 12 8 20 0 8 5
12 11 8 8 -4 8 -9 0 -17 -15 -15 -14 -30 1 -21 6 4 8 3 5 -4 -4 -5 -16 -8 -27
-5 -12 3 -20 0 -20 -8 0 -8 -6 -5 -15 7 -14 18 -15 17 -5 -8 6 -19 6 -29 -2
-34 -7 -4 -8 -3 -4 4 4 7 2 12 -4 12 -6 0 -8 5 -4 12 4 7 3 8 -5 4 -6 -4 -9
-12 -6 -17 3 -5 -7 -7 -23 -5 -24 2 -29 -1 -28 -17 1 -11 8 -22 16 -24 13 -4
13 -3 0 6 -8 5 -11 13 -7 18 11 10 27 -17 20 -33 -4 -11 -10 -11 -26 -3 -18 9
-20 9 -10 -1 15 -17 -5 -39 -29 -32 -26 6 -22 -7 5 -18 18 -7 18 -9 4 -9 -10
-1 -15 -5 -12 -11 3 -6 -1 -7 -9 -4 -9 3 -16 1 -16 -5 0 -6 5 -11 12 -11 6 0
8 -3 4 -7 -4 -5 -14 1 -22 11 -17 23 -19 13 -3 -16 9 -16 8 -19 -2 -12 -7 4
-30 8 -50 9 -28 1 -36 -2 -31 -13 4 -11 -2 -13 -29 -8 l-34 6 35 -14 c19 -8
27 -15 18 -15 -10 -1 -18 -6 -18 -13 0 -7 -5 -5 -12 4 -11 14 -15 15 -25 3
-10 -11 -9 -15 7 -20 25 -8 16 -25 -10 -20 -11 2 -20 -2 -20 -8 0 -9 -3 -8 -8
1 -5 7 -16 10 -25 6 -9 -3 -14 -10 -11 -15 3 -5 11 -7 17 -3 7 3 3 -1 -7 -10
-10 -8 -23 -13 -29 -9 -6 3 -7 1 -3 -5 3 -6 15 -9 26 -7 13 3 17 -1 13 -11 -6
-17 -8 -17 -36 -2 -19 10 -20 9 -10 -4 15 -18 7 -29 -15 -21 -9 4 -13 2 -8 -5
4 -7 -4 -9 -24 -7 -29 4 -37 -11 -15 -27 6 -4 0 -8 -12 -8 -12 0 -24 -4 -28
-10 -3 -5 -11 -8 -18 -6 -7 1 -9 1 -4 -1 4 -3 7 -9 7 -14 0 -6 -4 -7 -10 -4
-5 3 -10 -3 -10 -13 0 -15 5 -19 19 -15 10 3 21 1 24 -4 3 -5 -4 -9 -16 -9
-12 1 -22 -4 -22 -11 0 -6 -4 -15 -9 -20 -5 -5 -6 -2 -2 7 4 8 -6 0 -23 -19
-17 -19 -28 -38 -26 -42 3 -4 -1 -10 -7 -12 -12 -5 45 -11 65 -8 5 1 6 -3 2
-9 -3 -6 -11 -8 -16 -5 -5 4 -9 1 -9 -5 0 -7 -7 -9 -16 -6 -10 4 -13 2 -8 -6
5 -8 -3 -9 -27 -5 -19 3 -28 3 -22 1 9 -4 9 -11 -3 -29 -13 -19 -13 -28 -3
-47 11 -21 11 -22 -4 -9 -10 8 -17 9 -17 3 0 -6 -8 -9 -18 -7 -27 5 -49 -10
-27 -18 9 -4 14 -3 10 2 -6 11 22 8 32 -4 4 -4 3 -5 -3 -2 -14 8 -38 -18 -30
-32 7 -10 -13 -9 -30 1 -6 4 -17 -4 -25 -18 -11 -22 -11 -27 1 -35 11 -7 7 -9
-16 -6 -26 4 -30 2 -30 -19 0 -13 4 -24 10 -24 5 0 7 -2 4 -5 -8 -9 -38 6 -32
16 3 5 -2 6 -11 3 -14 -6 -14 -8 -1 -23 14 -15 13 -17 -4 -17 -10 0 -18 4 -17
9 1 5 -5 12 -13 14 -9 3 -11 1 -5 -4 11 -9 16 -43 6 -41 -17 2 -31 -3 -31 -12
0 -5 6 -7 14 -4 8 3 17 0 22 -7 4 -8 3 -10 -4 -5 -18 11 -35 -3 -23 -18 8 -9
7 -13 -3 -13 -8 0 -13 8 -11 18 2 10 -1 22 -7 25 -7 5 -8 2 -3 -6 5 -9 1 -10
-16 -6 -20 6 -21 5 -6 -4 20 -13 23 -32 3 -24 -9 3 -24 -9 -40 -32 -31 -46
-26 -57 9 -20 27 29 32 42 13 30 -7 -5 -8 -3 -4 5 5 7 11 9 15 6 9 -10 9 -65
-1 -59 -5 3 -6 10 -3 15 13 20 -8 8 -27 -16 -14 -18 -26 -24 -42 -20 -11 2
-15 2 -8 -1 6 -3 12 -11 12 -17 0 -5 -3 -8 -6 -4 -4 3 -13 -1 -21 -9 -9 -9
-20 -11 -27 -6 -6 5 -24 5 -41 1 -29 -7 -29 -7 8 -8 39 -1 48 -16 25 -40 -11
-11 -9 -12 8 -3 22 12 34 7 34 -12 0 -6 -5 -4 -11 4 -8 12 -10 12 -8 -5 1 -11
-3 -31 -9 -45 -8 -20 -11 -21 -11 -6 -1 17 -3 17 -24 3 -17 -11 -21 -22 -19
-48 3 -28 2 -31 -11 -21 -8 7 -22 9 -32 6 -13 -5 -14 -9 -3 -15 10 -7 9 -9 -5
-9 -10 0 -16 -4 -13 -8 2 -4 -9 -18 -25 -31 -28 -22 -42 -50 -17 -35 7 4 8 3
4 -5 -4 -6 -11 -9 -15 -6 -5 2 -26 -9 -46 -25 -21 -17 -44 -31 -51 -31 -8 -1
-19 -2 -26 -3 -14 -1 -23 -26 -9 -26 5 0 21 4 35 10 20 7 24 6 20 -5 -3 -7
-12 -11 -20 -8 -14 5 -16 -20 -2 -42 3 -5 0 -16 -8 -23 -8 -7 -14 -8 -14 -2 0
5 -4 10 -10 10 -5 0 -7 -7 -4 -15 4 -8 1 -15 -6 -15 -6 0 -9 -4 -5 -9 9 -16
-27 -43 -52 -38 -12 2 -23 0 -23 -4 0 -5 7 -9 16 -9 8 0 13 -4 10 -9 -4 -5 0
-12 6 -14 8 -3 6 -6 -4 -6 -12 -1 -15 -6 -11 -18 6 -17 5 -17 -13 -1 -13 12
-24 14 -34 8 -12 -8 -11 -10 6 -10 20 0 57 -30 38 -30 -5 0 -2 -5 6 -10 11 -8
8 -9 -13 -6 -15 3 -25 1 -22 -5 4 -5 1 -9 -5 -9 -6 0 -8 -4 -5 -10 3 -5 -1
-10 -9 -10 -9 0 -16 -5 -16 -12 0 -6 -3 -9 -6 -5 -10 9 -84 -31 -84 -46 0 -8
4 -7 10 3 5 8 10 11 10 5 0 -5 4 -4 9 4 8 12 14 12 33 3 13 -7 15 -10 4 -7
-13 4 -17 1 -13 -9 8 -21 -16 -39 -31 -24 -9 9 -12 9 -12 0 0 -7 -3 -11 -7
-11 -21 3 -33 -3 -33 -17 0 -9 -8 -14 -17 -13 -32 3 -53 -1 -53 -9 0 -5 16 -7
36 -5 20 1 44 -2 53 -8 14 -9 14 -10 -1 -5 -10 3 -18 1 -18 -5 0 -6 -4 -7 -10
-4 -5 3 -10 2 -10 -3 0 -5 -9 -12 -20 -15 -12 -3 -18 -1 -14 5 4 7 0 7 -12 1
-11 -5 -32 -8 -49 -6 -39 4 -75 -5 -75 -18 0 -6 6 -7 12 -2 7 4 34 8 60 9 40
1 46 -2 36 -13 -6 -8 -20 -12 -30 -9 -14 3 -16 1 -10 -7 5 -7 12 -21 15 -32 7
-20 7 -20 -8 -1 -13 17 -17 18 -28 6 -10 -10 -9 -11 2 -5 9 5 12 3 9 -6 -5
-16 -28 -19 -45 -6 -9 6 -13 6 -13 -2 0 -10 13 -15 33 -12 4 0 7 -5 7 -13 0
-9 -7 -12 -20 -9 -11 3 -20 0 -20 -6 0 -6 -9 -11 -20 -11 -14 0 -20 -7 -20
-21 0 -14 -5 -19 -14 -16 -8 3 -20 -1 -28 -10 -11 -14 -10 -16 9 -11 29 8 40
-8 13 -17 -11 -3 -20 -11 -20 -16 0 -5 -8 -9 -18 -9 -11 0 -27 -9 -37 -20 -10
-11 -13 -20 -7 -20 7 0 12 5 12 12 0 17 11 3 14 -19 2 -12 10 -17 22 -15 11 2
16 1 13 -2 -12 -13 -49 -15 -49 -3 0 8 -3 7 -9 -2 -5 -7 -14 -11 -20 -7 -7 5
-9 1 -5 -8 3 -9 10 -13 15 -10 5 3 9 -1 9 -8 1 -10 4 -9 13 2 13 17 37 24 37
12 0 -8 -50 -54 -66 -61 -41 -17 -62 -30 -88 -53 -16 -15 -39 -29 -50 -31
l-21 -4 21 -2 c11 0 33 9 48 22 19 17 36 22 56 19 17 -2 30 -9 30 -14 0 -6 -8
-8 -18 -6 -18 5 -20 2 -24 -39 0 -10 -9 -24 -20 -31 -10 -7 -18 -19 -18 -27 0
-8 -9 -20 -21 -28 -14 -11 -17 -17 -9 -22 7 -4 16 -1 21 6 5 8 9 10 9 4 0 -14
-12 -28 -34 -41 -11 -5 -20 -19 -22 -29 -2 -10 -5 -30 -9 -43 -4 -17 -2 -22 7
-17 7 4 5 0 -5 -8 -20 -16 -23 -31 -4 -21 6 3 -1 -5 -18 -20 -16 -14 -25 -25
-20 -26 6 0 17 6 25 13 8 6 6 1 -5 -12 -11 -14 -14 -21 -7 -17 25 15 11 -17
-23 -48 -19 -19 -35 -38 -35 -44 0 -6 16 5 35 25 19 20 35 31 35 24 0 -7 5 -9
10 -6 6 3 0 -11 -12 -32 l-22 -38 26 25 c14 14 28 32 31 40 3 9 6 3 6 -13 1
-19 5 -26 13 -21 7 4 8 3 4 -5 -4 -6 -12 -9 -17 -6 -5 4 -10 1 -10 -4 -1 -6
-2 -15 -3 -21 0 -5 -8 -15 -16 -22 -32 -27 -42 -46 -28 -54 7 -4 10 -4 6 0 -8
10 32 56 49 56 9 0 10 -6 3 -25 -5 -14 -6 -25 -2 -25 4 0 0 -5 -8 -10 -8 -5
-15 -13 -15 -17 -1 -4 -7 -19 -15 -33 -8 -14 -15 -34 -17 -45 -3 -19 -2 -19
11 -2 7 9 18 17 24 17 6 0 14 5 18 12 5 7 3 8 -7 3 -8 -5 -5 2 6 16 11 13 21
26 22 28 1 2 1 -6 0 -17 0 -11 -5 -18 -11 -15 -5 3 -6 1 -2 -5 4 -6 14 -8 22
-5 16 6 -61 -155 -81 -169 -5 -4 -7 -10 -4 -13 4 -3 20 7 37 23 37 35 47 31
26 -9 -8 -16 -12 -29 -9 -29 4 0 0 -7 -9 -15 -8 -9 -13 -22 -10 -29 3 -9 -2
-16 -13 -18 -15 -3 -15 -5 5 -10 12 -3 20 -2 16 3 -3 5 -1 9 4 9 5 0 12 -11
14 -25 3 -13 2 -22 -3 -20 -4 3 -10 1 -14 -5 -6 -9 8 -15 29 -11 5 1 4 -5 -4
-13 -9 -11 -9 -16 -1 -16 6 0 14 7 18 16 11 28 20 -4 18 -64 -1 -54 -3 -57
-26 -53 l-24 3 23 -19 c26 -20 22 -48 -8 -56 -13 -3 -17 0 -13 9 3 8 0 14 -6
14 -6 0 -10 -6 -9 -12 2 -7 -3 -12 -10 -10 -8 1 -11 -2 -6 -9 5 -8 2 -10 -8
-7 -11 5 -14 0 -12 -18 1 -16 -3 -24 -14 -24 -13 0 -12 -3 4 -15 16 -13 17
-16 4 -26 -12 -8 -9 -9 12 -5 16 4 28 3 28 -2 0 -4 -8 -8 -18 -9 -9 -1 -24 -3
-32 -5 -9 -2 -14 3 -12 12 2 8 0 12 -4 7 -4 -4 -9 -17 -11 -28 -2 -11 -10 -27
-18 -35 -8 -9 -15 -20 -15 -27 0 -6 11 4 24 22 13 18 27 28 30 23 3 -6 -1 -13
-10 -16 -8 -3 -12 -11 -8 -17 5 -8 3 -9 -5 -5 -8 6 -11 2 -9 -10 2 -13 -2 -18
-14 -16 -12 2 -15 -3 -12 -20 l5 -23 -10 23 c-11 23 -31 30 -31 11 0 -5 -4 -8
-9 -4 -5 3 -13 0 -17 -6 -4 -8 -3 -9 4 -5 7 4 12 2 12 -5 0 -7 7 -4 15 7 8 10
15 15 15 11 0 -4 -12 -20 -27 -34 -19 -18 -22 -24 -10 -20 10 4 16 3 12 -2 -3
-5 1 -12 7 -14 10 -4 9 -6 -1 -6 -11 -1 -11 -4 -1 -16 7 -9 10 -18 6 -22 -3
-3 -6 -1 -6 6 0 7 -5 9 -12 5 -7 -5 -8 -3 -3 6 5 9 4 11 -4 6 -6 -4 -9 -11 -6
-16 3 -5 -3 -18 -14 -29 -11 -11 -16 -23 -13 -26 4 -4 -3 -5 -14 -1 -16 5 -30
-1 -52 -23 -16 -17 -33 -27 -38 -23 -5 4 0 -4 11 -18 13 -16 14 -20 4 -12 -9
7 -24 10 -33 6 -14 -6 -14 -9 5 -25 25 -21 19 -25 -14 -8 -18 9 -20 9 -10 -1
6 -7 9 -19 6 -28 -4 -9 -2 -13 4 -9 13 8 11 -18 -1 -30 -4 -4 -6 -3 -4 4 4 13
0 14 -29 7 -13 -4 -21 -10 -18 -13 2 -4 -2 -8 -10 -8 -13 0 -12 3 1 18 9 10
20 17 23 14 4 -2 12 5 19 16 7 10 8 19 3 19 -5 0 -12 -6 -14 -12 -4 -10 -8 -9
-17 2 -10 13 -11 12 -6 -4 5 -13 2 -17 -8 -13 -11 4 -13 1 -9 -10 4 -10 2 -14
-4 -10 -12 8 -12 -11 0 -30 6 -9 3 -11 -9 -6 -12 4 -15 3 -10 -5 6 -10 -16
-17 -45 -14 -4 1 -6 -9 -5 -21 0 -12 -4 -21 -10 -20 -6 1 -11 -6 -11 -15 0
-35 -4 -39 -29 -36 -18 2 -24 -2 -20 -11 3 -10 0 -12 -11 -8 -11 4 -14 2 -9
-5 4 -7 3 -12 -3 -12 -5 0 -13 5 -16 10 -3 6 -12 10 -18 9 -9 0 -9 -2 1 -6 6
-2 12 -13 12 -23 0 -21 -23 -43 -35 -32 -4 4 -3 -2 3 -14 9 -16 8 -21 -3 -21
-8 0 -12 4 -9 8 2 4 0 10 -5 13 -15 10 -6 -25 10 -36 11 -8 11 -9 -3 -4 -10 3
-18 1 -18 -4 0 -6 -5 -10 -11 -10 -5 0 -7 5 -3 12 4 7 3 8 -4 4 -7 -4 -12 -14
-12 -22 0 -8 -5 -14 -10 -14 -6 0 -5 -6 2 -14 11 -12 15 -12 31 1 9 9 17 11
17 6 0 -6 -8 -14 -17 -17 -11 -5 -14 -9 -6 -14 7 -5 6 -12 -5 -22 -14 -13 -15
-12 -9 3 5 14 2 17 -17 14 -30 -4 -58 -26 -49 -40 4 -7 0 -8 -13 -3 -15 6 -16
5 -7 -5 10 -10 15 -9 27 1 9 7 13 17 9 24 -3 6 -2 7 2 3 12 -11 15 -38 4 -31
-6 3 -8 -5 -5 -20 3 -14 0 -26 -6 -26 -5 0 -8 6 -5 13 3 8 0 14 -6 14 -7 0
-13 -11 -13 -24 -2 -18 2 -22 16 -18 22 7 47 -19 29 -31 -7 -4 -9 -3 -5 4 10
16 -12 25 -31 12 -17 -11 -17 -11 0 -6 19 6 24 -10 5 -17 -8 -3 -5 -6 5 -6 10
-1 15 -6 12 -11 -4 -6 -11 -8 -16 -5 -5 4 -9 -2 -9 -12 0 -15 -2 -16 -10 -3
-6 10 -10 11 -10 3 0 -7 -8 -13 -17 -13 -9 0 -14 -2 -11 -5 8 -8 -45 -59 -87
-85 -34 -21 -42 -46 -20 -62 6 -4 2 -8 -9 -8 -13 0 -16 -5 -12 -17 4 -10 4
-14 0 -11 -9 10 -25 -10 -55 -68 -24 -46 -29 -91 -8 -79 5 3 6 -1 3 -9 -3 -9
-11 -13 -17 -9 -6 4 0 -8 12 -26 19 -27 22 -37 13 -56 -11 -24 -7 -35 12 -35
6 0 4 5 -4 10 -9 6 -10 10 -3 10 16 0 26 -17 13 -25 -6 -4 -8 -11 -5 -16 4 -5
2 -9 -4 -9 -5 0 -11 3 -14 8 -2 4 -2 1 -1 -5 2 -7 -2 -13 -8 -13 -6 0 -1 -11
12 -25 13 -14 19 -25 14 -25 -5 0 -14 -16 -20 -35 -6 -19 -7 -32 -2 -29 4 3 8
-2 8 -10 0 -10 -6 -13 -17 -9 -15 5 -15 3 2 -11 11 -10 15 -15 9 -12 -6 3 -11
-1 -11 -9 0 -8 4 -12 9 -9 13 8 10 -10 -4 -25 -11 -11 -10 -13 4 -8 10 4 18 2
18 -4 0 -6 4 -8 8 -5 5 3 9 -1 9 -9 0 -10 -5 -11 -17 -5 -13 7 -16 5 -15 -10
1 -11 4 -23 8 -26 4 -4 3 -12 -3 -18 -6 -8 -3 -12 10 -12 10 0 17 3 16 6 -2 3
5 13 16 23 24 22 23 9 -2 -23 -24 -31 -26 -47 -3 -29 11 10 14 10 9 2 -4 -8
-2 -13 7 -13 8 0 18 -7 21 -16 3 -8 10 -12 16 -9 5 3 10 2 10 -3 0 -6 -7 -13
-16 -16 -10 -4 -13 -2 -8 6 4 7 3 8 -5 4 -6 -4 -10 -4 -9 1 2 4 -1 9 -6 11 -6
1 -11 -4 -12 -13 -1 -8 2 -13 7 -9 5 3 9 1 9 -4 0 -6 7 -13 16 -16 8 -3 12 -2
9 4 -3 6 -1 10 4 10 6 0 12 -7 12 -15 3 -28 4 -33 12 -41 4 -4 7 0 7 9 0 9 4
19 10 22 5 3 7 0 4 -9 -3 -8 -1 -23 6 -33 9 -16 10 -15 5 7 -6 24 -5 24 9 6 9
-11 16 -24 16 -29 0 -4 5 -5 11 -1 6 3 3 -8 -6 -26 -9 -18 -12 -30 -7 -26 5 3
15 -8 22 -24 7 -17 17 -33 23 -37 5 -3 7 -1 4 4 -4 6 0 14 9 17 11 4 15 2 11
-8 -3 -8 0 -20 8 -26 12 -10 13 -8 10 9 -2 12 0 21 4 21 8 0 18 -35 23 -77 1
-9 5 -9 13 -3 15 12 43 -16 48 -48 2 -12 7 -25 12 -29 4 -5 5 -1 0 7 -5 8 -5
12 0 8 4 -4 13 -18 19 -30 7 -13 18 -23 25 -23 8 0 16 -11 18 -25 2 -14 13
-33 24 -43 15 -12 20 -25 17 -46 -3 -23 -1 -28 11 -23 14 5 14 4 1 -13 -8 -10
-10 -16 -4 -12 14 8 37 -16 27 -27 -4 -4 0 -4 8 -1 11 4 18 -1 22 -15 4 -18 3
-19 -9 -9 -12 10 -13 9 -8 -6 5 -13 4 -16 -5 -10 -10 6 -11 3 -2 -14 9 -16 9
-21 -1 -21 -10 0 -10 -2 -1 -8 7 -4 15 -28 19 -52 4 -25 14 -51 23 -58 9 -8
11 -11 5 -8 -7 3 -17 -1 -24 -9 -11 -13 -10 -14 4 -9 9 3 16 2 17 -2 0 -5 2
-19 3 -31 1 -12 0 -20 -4 -18 -3 2 -4 -9 -2 -26 2 -16 -1 -35 -7 -43 -8 -10
-8 -16 3 -25 8 -7 12 -20 9 -28 -5 -12 -2 -15 10 -10 11 4 14 2 10 -9 -3 -8
-12 -13 -19 -10 -10 4 -11 -1 -3 -21 8 -22 7 -24 -8 -19 -10 4 -14 4 -10 0 4
-4 -1 -16 -10 -27 -10 -11 -12 -17 -5 -13 6 4 12 3 12 -1 0 -5 -6 -15 -12 -22
-9 -10 -9 -12 -1 -7 7 4 11 -1 10 -13 -1 -15 -5 -17 -13 -10 -9 7 -16 4 -24
-11 -6 -11 -16 -17 -22 -14 -7 4 -8 3 -4 -5 4 -6 12 -9 17 -6 5 4 9 1 9 -6 0
-6 -8 -9 -20 -6 -11 3 -18 1 -14 -4 5 -8 -9 -13 -28 -10 -4 0 -5 -6 -2 -14 5
-13 -10 -20 -37 -17 -4 1 -5 -9 -2 -21 4 -18 3 -19 -6 -7 -9 13 -11 12 -11 -3
0 -11 -4 -15 -12 -11 -8 5 -9 2 -5 -9 3 -9 3 -16 -2 -14 -11 3 -91 -70 -84
-77 3 -3 0 -12 -7 -21 -7 -8 -9 -15 -4 -15 4 0 3 -5 -3 -11 -6 -6 -9 -18 -6
-27 4 -10 2 -13 -5 -8 -7 4 -12 1 -12 -9 0 -10 5 -13 12 -9 7 4 8 3 4 -4 -4
-7 -15 -12 -24 -12 -13 0 -14 -2 -3 -9 11 -7 11 -9 0 -14 -10 -4 -10 -6 -1 -6
6 -1 12 -6 12 -12 0 -5 -3 -8 -8 -5 -4 2 -15 -9 -25 -25 -9 -17 -12 -27 -7
-24 14 9 12 -9 -2 -24 -11 -10 -9 -11 6 -5 13 5 17 4 12 -4 -4 -8 -2 -10 7 -6
8 3 18 0 23 -7 5 -8 3 -10 -6 -4 -9 5 -11 4 -6 -3 4 -7 2 -12 -3 -12 -6 0 -11
-5 -11 -11 0 -8 4 -8 13 -1 16 14 57 12 57 -3 0 -5 4 -4 9 4 7 11 10 9 16 -8
4 -13 1 -29 -7 -38 -11 -14 -11 -16 2 -8 13 8 13 7 0 -10 -11 -14 -12 -19 -2
-22 6 -3 10 -9 6 -14 -3 -5 1 -9 9 -9 13 0 17 -12 18 -57 1 -13 5 -23 9 -23 5
0 12 -15 15 -33 4 -17 14 -40 23 -49 8 -10 11 -18 5 -18 -5 0 -10 -7 -10 -15
0 -14 10 -19 29 -16 4 0 5 -6 2 -14 -4 -8 -10 -15 -16 -15 -5 0 -7 4 -4 8 3 5
-1 9 -8 9 -7 0 -12 -10 -11 -21 1 -12 -3 -25 -9 -29 -7 -5 -3 -6 8 -3 14 5 17
2 12 -11 -6 -14 -4 -14 16 3 16 13 19 14 10 2 -14 -18 -13 -48 3 -61 6 -5 4
-7 -5 -4 -8 2 -14 9 -13 15 1 5 -4 13 -13 16 -12 5 -12 2 -4 -15 16 -28 21
-61 9 -54 -5 4 -7 10 -4 15 3 5 2 11 -3 14 -4 2 -8 -6 -8 -19 0 -17 5 -22 21
-20 27 3 27 -27 -1 -52 -19 -17 -22 -53 -4 -53 5 0 7 8 4 18 -5 13 -4 14 4 3
7 -9 7 -24 1 -40 -9 -25 -8 -25 6 -7 8 11 15 14 15 7 0 -7 5 -9 12 -5 7 4 8 3
4 -5 -4 -6 -12 -9 -17 -6 -5 4 -12 -7 -15 -24 -4 -19 -11 -28 -18 -24 -6 3 -8
3 -4 -2 4 -4 3 -14 -3 -22 -6 -7 -8 -13 -3 -14 24 -2 47 -8 52 -15 4 -4 -1 -4
-10 -1 -23 8 -23 -9 -1 -23 15 -8 12 -9 -12 -5 -27 5 -28 4 -8 -6 12 -6 24
-18 27 -25 5 -12 1 -12 -17 -3 -17 9 -20 9 -10 -1 6 -7 9 -19 6 -26 -3 -8 0
-14 7 -14 6 0 9 4 6 8 -2 4 4 8 15 8 19 0 19 -1 4 -12 -9 -7 -14 -17 -10 -23
4 -7 0 -8 -11 -4 -12 4 -15 3 -10 -5 4 -7 13 -12 19 -12 7 0 13 -10 14 -21 2
-19 1 -20 -10 -5 -10 14 -12 11 -12 -18 0 -19 3 -32 8 -29 12 8 38 -18 30 -31
-18 -28 1 -55 30 -40 7 3 4 -1 -6 -9 -18 -15 -18 -15 1 -21 10 -4 19 -13 19
-21 0 -12 -4 -12 -20 2 -20 18 -20 18 -2 -9 9 -16 22 -25 29 -21 6 3 8 3 4 -2
-4 -4 0 -15 10 -22 9 -8 1 -6 -19 5 -26 14 -36 16 -36 6 0 -7 5 -12 11 -11 6
1 9 -5 8 -13 -2 -8 0 -12 3 -8 4 4 16 3 27 -3 15 -8 17 -13 8 -24 -7 -8 -9
-19 -5 -25 3 -5 0 -10 -7 -10 -9 0 -10 -2 -2 -8 7 -4 13 -16 16 -27 2 -13 10
-19 23 -17 15 3 17 1 7 -10 -9 -12 -8 -19 7 -35 15 -16 17 -23 8 -33 -7 -8 1
-4 16 8 28 21 63 20 50 -2 -3 -6 -1 -6 8 2 19 17 46 15 54 -5 5 -15 4 -16 -6
-6 -7 7 -17 13 -23 13 -5 0 4 -12 20 -26 16 -15 22 -23 14 -18 -11 5 -10 2 2
-13 22 -24 24 -40 3 -23 -13 11 -14 10 -9 -4 4 -10 12 -15 19 -12 7 2 18 -1
25 -7 7 -7 3 3 -9 21 -12 17 -17 32 -11 32 6 0 8 5 4 12 -4 7 -3 8 4 4 6 -4 9
-13 6 -20 -3 -7 2 -21 11 -30 14 -13 15 -19 4 -32 -9 -12 -10 -17 0 -27 10 -9
11 -8 6 8 -5 18 -4 18 11 -3 9 -12 25 -22 36 -22 10 0 17 -3 14 -8 -8 -13 22
-45 35 -36 7 4 10 3 6 -4 -9 -14 3 -43 14 -36 5 3 6 -2 3 -10 -4 -9 1 -18 10
-22 9 -3 16 -15 16 -26 0 -14 5 -18 15 -14 8 3 15 1 15 -3 0 -5 -8 -12 -17
-15 -12 -5 -13 -10 -5 -18 6 -6 8 -18 5 -27 -4 -11 -1 -10 11 4 16 19 16 19 7
-7 -10 -26 -10 -26 35 -24 24 1 39 -1 32 -5 -9 -6 -8 -10 4 -14 10 -4 21 -4
27 -1 5 4 12 2 16 -4 4 -6 12 -7 18 -3 8 5 8 2 0 -9 -16 -19 -5 -32 14 -16 11
8 12 7 7 -6 -3 -9 -11 -16 -17 -16 -6 0 -7 -3 -4 -6 4 -4 13 -1 22 6 13 11 15
9 16 -11 1 -13 1 -28 0 -32 -1 -5 2 -6 7 -3 13 8 33 -9 35 -31 1 -14 6 -19 19
-15 10 2 15 8 12 13 -3 5 -10 6 -16 3 -7 -5 -8 -2 -3 6 4 7 2 16 -6 21 -11 7
-12 10 -1 21 8 7 13 9 12 3 -5 -22 1 -29 11 -15 8 12 9 10 4 -7 -4 -16 -2 -22
7 -20 7 2 9 2 5 -1 -4 -2 0 -11 10 -19 10 -8 12 -12 6 -8 -7 3 -19 2 -27 -2
-12 -6 -8 -12 16 -26 22 -13 28 -14 19 -3 -8 10 -9 16 -1 21 5 3 10 1 10 -6 0
-7 3 -10 6 -7 3 4 1 15 -4 25 -12 22 1 53 13 34 5 -9 10 -9 20 -1 9 8 15 8 20
0 4 -6 3 -9 -2 -8 -4 2 -9 0 -10 -4 -2 -5 -1 -7 1 -5 3 1 15 -8 28 -19 13 -12
33 -20 46 -19 13 1 29 -6 37 -17 13 -19 13 -19 20 3 l8 23 13 -26 c10 -19 20
-26 39 -23 22 2 23 0 13 -13 -10 -13 -10 -14 0 -8 6 4 12 3 12 -3 0 -5 9 -8
20 -6 11 2 18 0 15 -6 -6 -8 16 -13 52 -12 7 0 11 -4 10 -9 -1 -6 4 -13 12
-16 10 -3 13 3 9 27 -3 24 -1 31 9 27 8 -3 13 2 13 12 0 11 3 13 8 6 4 -6 15
-10 24 -9 9 2 22 -3 29 -11 6 -8 20 -14 31 -14 12 0 18 -6 16 -17 -2 -10 2
-18 7 -18 6 0 16 -4 24 -9 9 -6 12 -5 7 2 -3 6 -2 13 4 17 5 3 10 -1 10 -9 0
-9 5 -16 11 -16 5 0 7 6 3 13 -5 9 -4 9 6 0 7 -6 19 -9 26 -6 8 3 14 0 14 -7
0 -6 -4 -8 -10 -5 -6 4 -7 -1 -3 -11 5 -14 7 -14 17 5 11 20 12 20 24 1 7 -11
8 -20 3 -20 -5 0 -12 6 -14 13 -3 6 -6 7 -6 1 -1 -5 6 -19 15 -30 8 -10 13
-13 9 -6 -9 17 0 15 16 -5 8 -9 9 -14 3 -10 -7 4 -11 -2 -11 -18 0 -15 5 -25
14 -25 8 0 11 5 7 13 -4 6 -3 8 1 4 17 -15 14 -36 -3 -30 -10 4 -14 3 -10 -2
4 -4 2 -15 -5 -23 -7 -10 -8 -13 -1 -9 15 8 16 -45 1 -54 -5 -4 0 -10 12 -14
11 -3 21 -11 21 -16 0 -6 -6 -7 -12 -3 -9 5 -9 2 1 -9 7 -9 11 -17 7 -17 -3 0
-2 -10 3 -22 5 -13 5 -33 0 -45 -6 -16 -5 -21 5 -17 7 3 12 -4 12 -20 0 -14
-4 -22 -9 -19 -5 3 -3 -4 4 -15 7 -12 17 -18 22 -15 5 3 3 -4 -5 -16 -10 -16
-10 -23 0 -33 16 -16 16 -31 -1 -22 -8 6 -8 3 1 -9 8 -9 10 -22 6 -28 -4 -7
-3 -9 3 -6 6 4 14 0 17 -9 3 -8 2 -13 -2 -10 -4 2 -8 -13 -8 -35 -1 -21 3 -39
8 -39 5 0 6 -5 3 -10 -4 -6 -11 -8 -16 -5 -5 3 -6 -1 -3 -10 5 -13 9 -13 22
-3 14 12 14 11 2 -9 -12 -18 -17 -20 -30 -10 -13 10 -13 10 -3 -4 7 -9 9 -20
5 -24 -4 -5 -2 -5 5 -1 6 3 14 2 18 -4 4 -6 10 -8 14 -6 4 3 8 -1 8 -9 0 -8
-5 -11 -10 -8 -6 4 -8 -1 -4 -11 4 -11 3 -15 -4 -11 -6 4 -8 13 -5 21 3 8 1
14 -3 14 -5 0 -11 -7 -15 -15 -3 -8 -1 -15 5 -15 6 0 7 -5 4 -10 -4 -6 -3 -10
2 -9 4 1 15 1 23 0 13 -1 13 -2 0 -11 -8 -5 -10 -10 -4 -10 10 0 19 -17 29
-57 2 -7 -3 -9 -13 -6 -29 12 -3 -14 28 -27 19 -8 29 -18 26 -26 -3 -7 3 -18
12 -24 16 -11 15 -11 -1 -6 -12 4 -17 2 -14 -6 2 -7 -5 -18 -17 -25 -14 -8
-16 -12 -6 -13 13 0 13 -1 0 -10 -13 -9 -13 -10 0 -10 12 0 12 -2 2 -9 -11 -7
-11 -9 1 -14 11 -4 15 0 12 14 -3 13 0 17 8 12 7 -4 6 0 -2 10 -12 15 -11 17
13 15 25 -2 25 -3 7 -23 -10 -11 -17 -31 -16 -44 2 -21 0 -22 -10 -7 -11 15
-13 14 -20 -11 -5 -15 -7 -34 -6 -41 1 -6 -3 -12 -9 -12 -6 0 -8 5 -5 10 3 6
-1 10 -10 10 -9 0 -13 -4 -10 -10 3 -5 1 -10 -4 -10 -6 0 -11 -5 -11 -11 0 -5
4 -7 10 -4 6 3 7 -1 4 -10 -6 -14 -8 -14 -21 2 -8 10 -12 13 -8 6 3 -7 -3 -18
-14 -25 -14 -9 -17 -16 -10 -24 8 -9 4 -12 -15 -10 -19 2 -24 -1 -21 -15 2
-12 -1 -16 -10 -13 -19 7 -30 -16 -14 -28 11 -8 10 -9 -4 -4 -12 4 -27 -3 -43
-19 -14 -14 -30 -25 -37 -25 -8 0 -8 -3 1 -9 10 -6 5 -10 -17 -14 -17 -4 -33
-6 -35 -4 -2 1 -14 -7 -27 -18 -12 -11 -19 -14 -14 -6 6 10 4 12 -4 6 -7 -4
-11 -16 -8 -26 5 -18 -14 -37 -36 -37 -14 0 -22 -12 -9 -12 7 0 12 -4 12 -9 0
-5 -8 -8 -17 -6 -10 2 -22 4 -27 4 -6 1 -1 7 10 15 10 8 19 20 19 27 0 7 6 14
13 17 8 2 10 -2 5 -15 -3 -10 -3 -15 1 -12 4 4 8 16 11 27 3 19 1 20 -21 10
-14 -6 -23 -17 -20 -23 2 -6 -11 -17 -30 -24 -19 -7 -32 -16 -30 -20 7 -11
-12 -36 -21 -28 -4 5 -3 11 2 15 14 10 17 32 5 32 -5 0 -10 -7 -10 -16 0 -9
-6 -14 -13 -11 -7 3 -13 -3 -13 -13 0 -10 5 -16 10 -13 5 3 6 1 2 -5 -4 -7 -2
-12 3 -12 6 0 11 -5 11 -11 0 -8 -4 -8 -15 1 -8 6 -19 9 -24 6 -6 -4 -8 5 -5
21 3 20 2 24 -5 13 -5 -8 -8 -17 -5 -21 2 -4 -3 -12 -11 -19 -17 -14 -20 -30
-4 -30 5 0 8 4 4 9 -3 5 0 13 6 17 8 5 10 1 7 -14 -3 -12 -1 -23 6 -25 8 -3 7
-11 -2 -27 -13 -21 -12 -22 3 -16 16 6 16 4 4 -11 -12 -15 -12 -16 2 -11 9 4
16 1 16 -7 0 -10 -5 -11 -19 -4 -10 5 -18 14 -18 19 0 6 -5 10 -12 10 -6 0 -8
-3 -5 -7 4 -3 0 -17 -9 -31 -14 -22 -14 -25 2 -37 15 -11 22 -10 41 2 13 9 26
13 30 9 3 -3 1 -6 -6 -6 -7 0 -9 -4 -6 -10 3 -5 0 -7 -8 -4 -8 3 -20 -2 -27
-11 -7 -8 -9 -15 -4 -15 10 0 -28 -29 -39 -30 -5 0 -5 9 -2 20 3 11 2 20 -3
20 -6 0 -9 -13 -8 -30 2 -25 0 -27 -13 -17 -9 6 -13 7 -8 2 4 -4 0 -16 -9 -26
-10 -11 -12 -19 -5 -24 16 -9 13 -22 -5 -29 -14 -5 -15 -4 -4 9 7 8 8 15 2 15
-12 0 -24 -29 -16 -41 3 -5 0 -9 -6 -9 -6 0 -8 -4 -5 -10 3 -5 0 -10 -7 -10
-9 0 -9 -3 -2 -8 6 -4 11 -15 11 -24 0 -15 -3 -15 -15 -5 -13 10 -14 9 -2 -12
11 -21 10 -23 -4 -18 -13 5 -14 3 -3 -13 12 -20 58 -20 5619 -20 l5608 0 0
635 c0 417 -3 635 -10 635 -5 0 -10 5 -10 11 0 5 5 7 10 4 6 -4 10 6 10 23 0
18 -6 32 -16 36 -9 3 -12 11 -8 18 6 10 4 10 -8 0 -9 -7 -20 -12 -24 -11 -22
4 -35 -2 -28 -13 5 -7 3 -8 -5 -4 -7 5 -10 10 -7 13 2 3 1 16 -4 29 -7 18 -6
22 5 17 8 -3 15 0 15 6 0 6 -5 10 -12 9 -7 -2 -12 2 -13 9 0 7 -7 18 -15 25
-12 11 -12 11 -1 -4 11 -15 11 -18 0 -18 -11 0 -11 -2 1 -10 14 -9 7 -14 -13
-11 -5 1 -6 -3 -2 -9 3 -6 9 -8 13 -6 4 2 8 -8 8 -22 1 -15 -1 -21 -3 -14 -3
6 -9 10 -14 7 -5 -4 -6 2 -2 11 4 11 2 15 -4 11 -7 -4 -10 8 -8 33 1 22 -2 37
-6 34 -5 -3 -7 -9 -4 -14 3 -5 0 -12 -6 -16 -8 -4 -9 -3 -5 4 7 11 -6 17 -27
13 -5 -1 -6 3 -2 9 3 6 10 8 15 5 5 -3 11 -1 14 4 4 5 -5 8 -19 6 -18 -2 -25
2 -23 14 2 8 -1 16 -7 16 -5 0 -16 4 -23 8 -7 5 -14 2 -18 -8 -6 -14 -8 -14
-19 1 -15 21 -39 9 -30 -15 5 -13 4 -14 -7 -3 -11 11 -9 17 9 32 19 15 20 19
7 24 -8 3 -13 2 -10 -3 8 -13 -30 -20 -45 -9 -11 8 -10 8 4 4 11 -3 16 -2 12
4 -3 6 -16 11 -28 11 -17 1 -18 2 -5 6 14 3 15 7 5 18 -10 11 -14 9 -25 -9
-13 -21 -13 -21 -6 3 5 19 3 23 -10 18 -8 -3 -21 0 -28 7 -7 7 -19 11 -26 10
-7 -1 -8 0 -2 3 7 3 7 10 -2 21 -10 14 -10 15 0 6 15 -13 65 -6 56 7 -3 5 -11
6 -17 2 -8 -4 -7 -1 1 9 8 10 9 19 3 22 -5 3 -12 0 -15 -6 -4 -7 -4 -3 -2 9 3
16 0 20 -12 16 -10 -4 -13 -2 -8 5 4 7 2 12 -3 12 -6 0 -11 -4 -11 -9 0 -5 -8
-12 -17 -16 -15 -5 -16 -4 -5 6 17 18 15 39 -3 39 -8 0 -15 5 -15 10 0 6 -7
10 -16 10 -14 0 -15 -3 -3 -18 7 -9 1 -6 -14 7 -28 25 -38 43 -12 21 9 -7 15
-8 15 -2 0 16 -26 22 -39 9 -9 -9 -10 -7 -5 8 7 17 6 18 -8 7 -13 -10 -18 -10
-24 -1 -4 8 -3 9 4 5 17 -10 15 3 -3 20 -12 12 -15 12 -16 2 0 -7 -5 -2 -11
12 -6 16 -12 20 -15 12 -4 -10 -8 -10 -21 0 -13 11 -14 11 -7 -1 6 -10 4 -12
-4 -7 -7 5 -10 14 -7 22 3 8 0 13 -7 11 -7 -1 -11 7 -9 18 2 16 1 17 -7 5 -7
-9 -7 -18 -1 -24 6 -6 10 -14 10 -19 0 -5 -9 1 -19 14 -14 17 -16 26 -8 32 8
6 7 7 -3 5 -8 -3 -18 -15 -22 -29 -6 -19 -7 -17 -3 8 3 25 1 31 -10 26 -10 -3
-15 1 -16 13 0 18 -1 17 -9 -1 -6 -14 -9 -16 -10 -5 -2 8 -2 19 -1 24 1 5 -6
3 -15 -5 -10 -8 -15 -9 -11 -2 4 6 3 15 -3 18 -6 4 -10 3 -9 -2 3 -19 -2 -23
-15 -11 -8 7 -11 17 -8 22 3 5 0 6 -7 2 -9 -6 -9 -11 -1 -21 9 -10 7 -13 -7
-11 -10 2 -17 10 -15 20 3 14 -14 21 -41 17 -4 -1 -3 8 3 19 12 23 22 27 14 5
-4 -10 0 -15 12 -15 14 0 16 2 6 9 -8 4 -13 11 -13 15 3 24 -2 26 -19 6 -11
-13 -20 -17 -20 -10 0 10 -3 10 -14 0 -13 -10 -13 -8 -3 14 13 29 30 36 20 9
-5 -15 -4 -16 8 -5 12 11 11 15 -3 26 -10 7 -16 15 -13 18 3 2 -2 5 -10 5 -8
0 -11 -5 -8 -10 4 -6 -1 -8 -11 -4 -10 4 -20 7 -22 7 -2 0 -4 5 -4 11 0 5 5 7
11 3 7 -4 10 -1 7 7 -3 8 -11 13 -18 11 -10 -2 -11 0 -2 11 7 8 9 17 5 20 -3
4 -1 7 6 7 8 0 11 -6 7 -16 -3 -8 -2 -12 4 -9 6 3 10 1 10 -4 0 -6 5 -11 11
-11 8 0 8 5 -1 15 -10 12 -9 15 5 15 24 0 17 6 -18 14 -23 5 -29 2 -39 -19 -6
-14 -16 -25 -21 -25 -5 0 -4 7 3 15 10 11 9 18 -4 30 -9 9 -16 22 -16 30 0 8
-7 11 -21 8 -16 -5 -20 -2 -17 13 4 23 27 43 50 44 14 0 15 4 5 30 -6 16 -14
26 -17 22 -3 -4 -13 -7 -22 -8 -54 -2 -56 -4 -51 -26 3 -13 3 -20 -1 -17 -3 3
-8 20 -10 38 -3 26 1 34 18 41 11 4 25 6 29 3 4 -3 6 8 4 24 -2 17 2 33 12 41
9 7 1 6 -17 -3 -18 -9 -39 -14 -45 -11 -7 2 -5 5 4 5 12 1 15 10 13 41 -1 22
1 40 6 40 14 0 18 39 4 44 -7 3 -11 12 -8 20 3 8 1 17 -5 20 -6 4 -8 13 -4 21
3 10 -1 15 -12 15 -10 0 -13 -5 -9 -12 4 -7 3 -8 -4 -4 -6 4 -8 14 -5 24 4 13
2 13 -10 -3 -9 -11 -11 -22 -6 -23 5 -2 7 -7 4 -12 -3 -5 7 -18 22 -29 20 -17
24 -24 14 -34 -9 -9 -16 -9 -33 2 -18 11 -20 11 -15 -1 3 -8 0 -15 -7 -15 -7
0 -13 6 -13 14 0 7 5 13 11 13 6 0 4 5 -4 11 -13 8 -13 9 2 7 17 -3 20 6 11
29 -3 7 -10 10 -16 6 -5 -3 -7 -2 -4 4 25 40 43 113 24 94 -17 -17 -27 -13
-27 9 0 11 -7 20 -15 20 -9 0 -12 6 -9 18 5 14 4 15 -5 2 -5 -8 -21 -16 -33
-17 -13 -1 -30 -3 -38 -5 -7 -2 -16 5 -18 15 -2 9 1 17 7 17 6 0 9 -6 7 -12
-1 -7 -1 -10 1 -5 3 4 9 5 14 1 5 -3 9 0 9 7 0 9 3 9 14 0 11 -9 16 -9 22 1 4
7 4 10 -1 6 -9 -9 -34 20 -35 39 0 7 6 10 14 7 8 -3 17 0 22 7 4 8 3 10 -4 5
-7 -4 -20 -2 -29 3 -13 7 -14 10 -4 11 8 0 12 3 8 6 -3 3 -1 17 4 31 8 23 7
25 -11 20 -11 -3 -23 -1 -26 4 -3 5 -10 7 -15 4 -5 -4 -19 1 -31 11 -18 13
-19 15 -4 10 17 -6 18 -2 13 29 -4 24 -2 33 5 29 7 -4 8 -2 4 5 -4 6 -12 9
-17 6 -5 -4 -8 3 -6 14 1 11 -2 20 -8 19 -5 0 -9 -3 -9 -7 1 -3 4 -19 8 -34 4
-19 3 -26 -4 -22 -5 3 -10 -3 -10 -14 0 -11 -3 -22 -7 -24 -5 -3 -8 21 -9 54
0 35 4 59 10 59 6 0 4 4 -4 10 -12 8 -12 10 3 16 9 3 17 10 17 16 0 5 -4 6
-10 3 -6 -3 -7 1 -4 9 3 9 10 13 15 10 5 -3 9 0 9 7 0 7 7 21 17 31 9 10 12
18 7 18 -5 0 -16 -9 -24 -19 -7 -11 -18 -17 -22 -15 -5 3 -3 11 4 17 7 7 11
11 9 10 -7 -5 -31 19 -31 31 0 6 5 4 10 -4 9 -13 10 -13 10 0 0 8 -4 22 -9 29
-6 9 -6 22 0 34 9 15 13 16 27 6 9 -7 2 2 -17 20 -18 18 -40 30 -47 27 -8 -3
-13 0 -11 7 1 7 -4 11 -11 9 -6 -1 -11 4 -10 10 2 7 -2 12 -9 11 -7 -2 -17 7
-23 18 -7 11 -17 18 -24 16 -7 -3 -13 4 -13 16 -1 11 -10 27 -19 36 -12 11
-14 12 -9 2 6 -10 4 -12 -4 -7 -7 5 -10 15 -7 23 3 8 1 11 -4 8 -6 -3 -10 1
-10 9 0 21 -19 31 -33 17 -9 -9 -8 -11 3 -8 8 2 11 2 7 -1 -5 -2 -1 -12 8 -22
13 -14 14 -20 3 -26 -7 -4 -10 -4 -6 1 4 4 3 14 -3 22 -10 11 -15 11 -28 1
-14 -12 -14 -11 -2 5 10 13 10 17 1 17 -10 0 -10 3 -1 14 9 11 9 16 0 22 -7 4
-10 3 -7 -2 3 -5 0 -15 -8 -22 -8 -7 -14 -8 -14 -2 0 5 -7 10 -15 10 -8 0 -15
5 -15 10 0 7 6 7 20 0 14 -7 20 -7 20 0 0 5 -7 10 -15 10 -8 0 -15 5 -15 11 0
8 -4 8 -13 0 -11 -8 -13 -4 -9 21 4 23 2 29 -8 23 -10 -6 -12 -4 -6 10 6 16 4
16 -11 4 -15 -12 -16 -12 -10 3 4 12 2 15 -9 11 -18 -7 -18 -8 3 -29 10 -9 12
-15 5 -13 -7 2 -23 20 -35 39 -12 19 -16 31 -9 26 7 -4 12 -2 12 4 0 6 6 8 13
5 6 -3 4 0 -5 7 -15 11 -15 14 5 42 11 16 16 27 10 23 -9 -6 -23 11 -27 33 -3
14 -41 48 -48 44 -14 -9 -9 -24 8 -24 8 0 12 -4 9 -10 -4 -6 1 -7 12 -3 15 6
16 5 3 -9 -8 -9 -17 -13 -20 -9 -7 10 -44 8 -51 -2 -3 -5 -9 0 -11 11 -4 16
-2 19 11 15 12 -3 11 -1 -3 11 -11 9 -15 16 -10 16 6 0 15 -5 22 -12 7 -7 12
-8 12 -2 0 6 -5 15 -11 21 -8 8 -7 13 2 18 8 5 10 4 5 -3 -4 -7 -1 -12 9 -12
9 0 13 4 10 10 -3 6 1 7 9 4 12 -5 16 0 16 20 0 36 1 40 10 51 5 6 -2 10 -20
10 -30 1 -35 -19 -9 -36 8 -5 9 -9 4 -9 -6 0 -16 5 -22 11 -8 8 -13 8 -17 0
-4 -6 -12 -11 -19 -11 -6 0 -2 6 9 14 21 16 16 26 -13 30 -11 2 -17 10 -15 22
3 15 2 16 -13 4 -12 -10 -18 -11 -28 -1 -9 10 -8 11 7 5 13 -5 17 -4 13 3 -8
12 11 12 31 0 6 -5 12 -4 12 0 0 11 -37 43 -42 37 -3 -2 -5 3 -5 11 0 12 6 10
24 -7 12 -12 26 -19 29 -15 4 4 -4 16 -17 28 -13 11 -19 18 -13 15 6 -3 11 6
11 24 0 18 -4 27 -11 23 -6 -4 -4 2 4 13 22 29 24 30 17 12 -3 -10 -1 -20 5
-24 7 -4 6 -10 -3 -16 -11 -8 -11 -11 -1 -15 10 -4 10 -8 1 -19 -8 -10 -8 -14
0 -14 11 0 12 3 15 51 0 14 7 34 15 43 8 9 10 16 5 15 -26 -5 -36 1 -25 15 10
12 8 13 -8 9 -12 -3 -18 -10 -14 -16 3 -6 1 -7 -6 -3 -6 4 -9 11 -6 16 3 5 -3
13 -12 19 -10 6 -13 11 -8 11 6 0 16 -5 21 -10 7 -7 11 -6 11 5 0 9 -9 15 -22
15 -14 0 -26 11 -37 35 -8 19 -11 32 -7 29 5 -3 9 -1 9 3 0 14 -38 34 -45 23
-3 -6 -1 -10 4 -10 6 0 11 -4 11 -8 0 -5 -6 -9 -14 -9 -15 0 -16 14 -3 34 10
15 -16 56 -28 45 -5 -4 -5 -1 -1 6 4 7 12 9 18 6 7 -4 8 -2 4 4 -4 7 -2 12 3
12 6 0 11 7 11 15 0 13 -4 12 -22 -4 -11 -11 -25 -18 -31 -14 -5 3 0 11 13 18
20 10 20 13 5 18 -22 9 -27 9 -22 0 3 -5 -7 -17 -21 -27 -14 -11 -22 -14 -18
-8 7 12 -4 16 -34 13 -11 -1 -10 1 3 10 14 8 22 7 35 -3 15 -12 16 -11 4 4 -9
11 -10 18 -2 23 5 3 10 1 10 -6 0 -7 3 -9 6 -6 4 4 1 13 -6 22 -10 12 -10 15
0 15 8 0 11 3 7 6 -3 4 2 14 11 23 10 9 12 12 6 8 -8 -5 -17 -1 -24 10 -11 17
-11 17 -6 -2 6 -19 5 -19 -7 -3 -8 10 -17 15 -20 11 -4 -3 -7 1 -7 10 0 10 5
16 11 15 6 -2 13 3 14 10 2 7 1 8 -2 2 -3 -7 -10 -4 -18 7 -7 10 -11 22 -8 26
3 5 10 3 15 -4 8 -11 9 -11 6 -1 -2 8 -8 13 -13 12 -5 -1 -12 6 -15 16 -6 16
-7 15 -12 -4 -4 -15 -2 -20 5 -15 7 3 9 3 5 -2 -4 -4 -3 -14 3 -21 8 -10 6
-19 -5 -36 -17 -24 -22 -14 -6 12 14 22 -7 42 -31 29 -11 -5 -19 -6 -19 -1 0
6 8 12 18 14 19 5 27 38 9 38 -5 0 -7 -6 -4 -13 3 -8 0 -14 -7 -14 -7 0 -13 6
-13 14 0 7 4 13 9 13 5 0 7 4 3 9 -3 5 0 13 6 17 7 4 9 3 5 -4 -4 -6 1 -10 12
-9 29 2 13 52 -16 51 -12 -1 -19 3 -16 7 3 5 10 7 15 4 5 -4 9 0 9 7 0 8 -9
14 -20 15 -11 1 -18 -2 -16 -6 7 -11 -12 -36 -21 -27 -4 5 -3 11 4 13 10 4 10
7 0 18 -7 7 -16 10 -22 7 -5 -3 -3 3 5 14 22 29 24 30 17 12 -3 -10 -2 -20 3
-23 5 -3 10 7 12 22 2 16 8 28 15 28 6 0 15 4 20 9 5 6 2 6 -6 1 -11 -6 -13
-4 -7 10 7 18 6 18 -12 2 -19 -17 -19 -17 -16 9 1 14 6 29 10 32 4 4 4 -1 1
-11 -4 -11 -3 -16 3 -12 6 3 10 15 10 25 0 10 5 20 12 22 6 2 12 16 12 30 1
19 -3 24 -14 21 -12 -4 -12 -3 -1 5 7 5 10 16 7 23 -4 8 2 3 13 -10 24 -26 28
-16 6 13 -8 11 -15 33 -15 49 0 16 -4 26 -10 22 -6 -3 -7 1 -4 10 6 14 8 14
20 -2 13 -17 14 -17 8 0 -5 13 -1 20 15 24 11 3 18 10 15 15 -3 5 -12 7 -20 4
-8 -3 -14 -1 -14 4 0 10 23 15 45 10 6 -1 7 2 3 6 -4 4 0 13 10 21 16 12 15
13 -3 6 -19 -7 -20 -6 -2 20 11 17 13 26 5 25 -7 -2 -12 4 -13 12 0 8 -5 15
-12 15 -6 0 -14 3 -18 7 -12 12 22 3 38 -10 10 -9 17 -10 22 -2 3 5 0 13 -9
16 -8 3 -17 13 -20 21 -5 13 -2 12 21 -2 27 -18 27 -18 13 0 -14 17 -13 17 10
10 24 -7 24 -7 5 8 -11 8 -23 13 -27 11 -4 -3 -5 2 -2 10 3 9 10 16 16 16 5 0
7 -4 4 -8 -3 -5 2 -9 10 -9 10 0 11 4 5 10 -7 7 -5 15 7 24 16 12 16 13 0 7
-13 -4 -18 -1 -18 11 0 10 -5 13 -12 9 -7 -4 -8 -3 -4 5 6 9 11 9 22 0 12 -10
13 -9 8 6 -6 14 -4 16 6 10 8 -5 11 -4 7 2 -4 6 2 18 13 28 18 16 18 19 3 41
-14 22 -14 24 1 30 9 3 16 10 16 16 0 5 -5 6 -12 2 -7 -4 -8 -3 -4 5 4 6 11 9
16 6 5 -3 11 -1 15 5 3 5 1 10 -6 10 -7 0 -4 6 6 14 11 8 23 12 27 10 4 -2 9
0 13 6 4 6 10 8 14 6 4 -3 8 1 8 9 0 11 -4 12 -14 3 -7 -6 -16 -8 -20 -4 -3 3
-14 0 -22 -8 -12 -11 -21 -12 -31 -5 -12 8 -12 9 4 7 24 -4 30 29 8 41 -9 5
-14 13 -10 16 4 4 18 -5 31 -20 19 -23 25 -25 32 -14 5 8 5 11 0 7 -8 -7 -35
15 -35 29 0 4 -11 17 -25 27 -14 10 -25 24 -25 30 0 8 2 8 8 0 5 -8 13 -5 27
9 20 19 20 19 -5 13 -19 -6 -22 -5 -10 3 13 10 13 12 0 21 -8 5 -10 10 -5 10
6 0 17 -6 25 -12 8 -8 7 -3 -3 14 -15 24 -15 27 -2 21 9 -3 15 -2 14 3 -1 5
-1 16 0 24 1 12 4 12 15 -3 13 -16 14 -15 12 10 -1 15 -5 34 -10 42 -7 11 -5
13 10 7 10 -4 15 -4 11 0 -4 4 -3 12 3 19 12 15 1 56 -14 49 -6 -3 -3 1 7 9
12 10 15 17 7 22 -8 5 -6 14 5 32 10 14 13 23 9 20 -5 -3 -15 1 -22 9 -7 8 -9
14 -5 14 4 0 -1 7 -11 15 -19 15 -19 15 1 15 12 0 23 8 26 19 3 14 1 18 -9 14
-8 -3 -11 -10 -7 -17 4 -6 -1 -5 -10 3 -16 13 -14 36 3 26 5 -3 16 2 24 11 9
8 16 12 16 7 0 -4 5 0 11 11 6 10 7 21 3 25 -5 3 -10 17 -12 30 -3 17 0 21 10
15 10 -6 10 -4 -1 9 -7 9 -19 17 -27 17 -7 0 -16 4 -19 10 -3 5 0 7 9 4 8 -3
23 -1 33 5 11 6 13 11 5 11 -7 0 -10 5 -7 10 3 6 1 10 -5 10 -7 0 -10 -7 -7
-14 4 -10 1 -13 -9 -9 -13 5 -13 8 2 24 16 18 16 19 -2 19 -16 0 -17 2 -4 10
10 6 16 6 18 0 2 -6 8 -10 14 -10 6 0 8 7 4 15 -3 10 1 15 12 16 11 1 8 4 -8
9 -14 4 -19 8 -12 9 9 1 10 6 2 20 -13 24 -13 41 0 21 7 -11 9 -7 7 15 -2 20
3 35 16 44 18 13 18 14 -2 32 -25 23 -27 33 -6 25 12 -4 12 -1 -2 22 -17 26
-17 27 2 12 19 -15 19 -14 3 11 -16 26 -16 26 8 23 21 -2 23 0 13 12 -14 17
-23 19 -13 2 5 -7 3 -8 -6 -3 -10 6 -7 12 10 25 15 12 19 19 11 24 -13 8 -11
37 3 47 14 11 -24 58 -42 53 -14 -5 -14 -4 1 6 9 6 15 15 12 20 -3 5 0 12 6
16 7 4 9 3 5 -4 -3 -6 -2 -13 4 -17 5 -3 10 -1 10 5 0 6 5 8 10 5 6 -3 10 -1
10 4 0 6 -5 11 -12 11 -6 0 -9 3 -5 6 3 3 -2 15 -12 26 -19 20 -25 68 -9 68 5
0 6 -5 2 -12 -4 -7 -3 -8 4 -4 8 5 9 13 2 25 -5 10 -6 21 -2 25 3 4 0 11 -8
16 -13 8 -12 10 2 10 23 0 34 20 17 31 -8 4 -20 3 -29 -4 -13 -10 -13 -10 -3
4 7 9 9 20 5 24 -4 5 -1 5 6 1 6 -4 12 -3 12 3 0 5 -8 12 -17 14 -12 3 -8 5 9
6 15 0 30 6 33 11 4 6 3 10 -2 9 -15 -4 -43 13 -43 25 0 6 12 19 28 29 15 10
20 16 12 14 -17 -4 -39 20 -40 45 0 12 -6 15 -22 10 -14 -3 -19 -2 -14 6 4 7
15 12 24 13 10 0 12 3 5 6 -9 3 -10 10 -3 23 10 19 -4 30 -40 30 -13 0 -17 5
-13 20 3 12 0 20 -8 20 -8 0 -6 5 6 13 14 11 15 16 5 22 -9 5 -11 4 -6 -3 4
-7 2 -12 -3 -12 -14 0 -14 23 0 37 8 8 5 13 -10 18 -12 3 -21 11 -21 16 0 14
26 39 34 34 3 -3 3 -2 0 3 -3 4 -10 8 -15 8 -5 1 -13 2 -19 3 -18 2 29 41 50
41 11 0 20 5 20 11 0 6 -7 8 -16 5 -10 -4 -13 -2 -8 6 5 8 2 9 -9 5 -13 -5
-17 -1 -17 16 0 13 4 27 9 33 6 5 11 21 13 35 2 15 9 34 16 42 8 9 9 18 4 21
-10 6 -35 -17 -27 -25 2 -3 -5 -6 -17 -6 -19 -2 -19 -1 -3 11 12 9 14 15 7 20
-6 4 -9 13 -6 21 4 8 10 13 14 10 5 -3 12 -1 15 5 4 6 1 9 -7 8 -22 -5 -19 60
3 76 17 12 18 14 4 20 -9 3 -14 10 -11 15 3 5 -1 12 -10 15 -9 3 -14 13 -10
21 6 16 -27 39 -38 27 -4 -3 -4 1 0 11 3 9 14 17 23 18 12 0 11 2 -4 8 -11 5
-23 7 -27 4 -5 -2 -8 0 -8 6 0 6 -6 9 -12 7 -7 -1 -10 -1 -5 1 4 3 5 9 2 14
-4 5 1 6 9 3 9 -3 16 -1 16 5 0 6 -3 10 -7 10 -26 -4 -33 2 -24 19 7 14 6 19
-5 20 -7 1 -20 3 -28 4 -15 1 -10 28 7 39 5 4 5 9 -2 13 -6 4 -11 2 -11 -3 0
-6 -5 -11 -10 -11 -6 0 -10 6 -9 13 3 28 -2 35 -23 29 -22 -5 -22 -5 -5 12 21
22 22 27 0 19 -10 -4 -14 -2 -10 4 8 13 -17 36 -28 25 -5 -4 -5 -1 -1 6 6 11
12 10 27 -4 17 -16 19 -16 19 -1 0 10 5 17 12 17 6 0 3 7 -8 15 -10 8 -15 15
-10 15 5 0 3 7 -4 15 -10 12 -10 15 1 15 12 0 12 2 0 9 -8 5 -19 7 -25 5 -6
-2 -17 0 -25 5 -10 7 -11 13 -2 30 11 20 8 25 -12 22 -5 -1 -6 15 -3 34 4 23
2 34 -4 30 -5 -3 -15 -3 -21 1 -7 4 -1 12 17 20 l29 12 -27 1 c-38 1 -58 11
-58 28 0 8 -5 11 -11 8 -6 -4 -5 2 2 13 7 12 17 19 21 16 4 -3 5 2 2 10 -3 9
-10 16 -16 16 -5 0 -6 5 -2 12 4 6 3 8 -4 4 -6 -3 -9 -18 -6 -31 2 -14 0 -25
-5 -25 -5 0 -8 8 -6 18 1 9 -2 25 -7 36 -7 12 -7 16 0 12 5 -3 13 1 16 10 3 9
11 12 18 8 9 -5 9 -3 -1 9 -7 9 -10 17 -5 17 4 0 3 5 -4 12 -9 9 -15 9 -24 -1
-11 -10 -9 -11 7 -5 17 7 18 5 8 -8 -7 -8 -11 -17 -8 -19 2 -3 -5 -5 -15 -6
-11 -1 -20 3 -20 8 0 6 5 7 10 4 13 -8 13 8 0 23 -6 6 -7 10 -4 7 9 -6 38 25
30 32 -3 4 -6 3 -6 -2 0 -4 -8 -1 -17 6 -16 13 -17 12 -4 -3 8 -10 9 -18 3
-18 -18 0 -20 24 -3 43 13 15 13 18 1 15 -9 -2 -14 4 -14 14 1 10 -2 16 -6 13
-4 -3 -11 2 -14 11 -8 22 -8 26 4 19 6 -3 7 1 4 10 -5 12 -10 13 -20 4 -15
-12 -14 -30 1 -42 6 -5 4 -7 -5 -5 -8 3 -15 16 -15 31 -1 14 1 24 5 22 4 -3
13 2 20 10 7 8 17 12 24 8 6 -4 5 1 -3 10 -7 9 -19 17 -25 17 -6 0 -4 -5 4
-10 13 -8 12 -10 -4 -10 -12 0 -16 5 -12 16 3 9 6 18 6 20 0 3 5 2 12 -2 7 -4
8 -3 4 4 -4 6 -14 8 -23 5 -11 -4 -14 -3 -9 5 5 8 0 12 -13 12 -19 0 -26 11
-22 34 1 5 -6 6 -15 2 -14 -5 -15 -4 -5 8 9 11 9 15 -1 19 -9 4 -8 6 3 6 9 1
16 8 16 16 0 10 -8 15 -20 13 -14 -2 -21 4 -23 19 -2 12 1 25 6 28 13 8 1 35
-16 35 -17 0 -18 12 -2 28 9 9 7 12 -10 12 -12 0 -22 5 -22 11 0 5 5 7 11 3 8
-5 8 -1 0 14 -6 11 -18 22 -26 26 -11 4 -14 12 -10 27 6 18 4 20 -13 15 -11
-4 -23 -2 -27 3 -3 6 0 8 8 5 8 -3 18 -1 22 5 3 6 -1 11 -9 11 -9 0 -16 5 -16
11 0 6 9 8 23 4 12 -3 18 -3 12 2 -9 7 -14 20 -19 50 -1 7 -5 16 -9 19 -12 12
-8 26 6 18 9 -5 9 -4 0 6 -9 10 -15 10 -28 -4 -21 -21 -32 -21 -14 0 11 13 10
17 -4 25 -17 10 -13 39 5 39 7 0 6 -5 -1 -14 -9 -11 -8 -15 5 -20 9 -4 19 -4
22 -1 3 3 0 5 -6 5 -7 0 -12 5 -12 11 0 5 4 7 10 4 6 -3 7 1 4 9 -3 9 -12 16
-19 16 -7 0 -16 7 -19 16 -9 23 -8 26 7 18 6 -4 3 2 -7 14 -11 12 -16 22 -11
22 4 0 3 6 -2 13 -6 6 -9 20 -8 30 4 20 -16 18 -23 -3 -3 -7 0 -10 5 -7 5 3
10 0 10 -7 0 -7 -6 -13 -12 -13 -10 0 -12 17 -6 49 0 4 11 9 24 11 19 4 18 4
-5 6 -31 1 -35 10 -15 30 10 11 7 12 -13 6 -17 -4 -21 -3 -11 3 8 6 9 11 2 13
-6 2 -12 14 -14 27 -2 13 -10 28 -18 33 -10 7 -5 8 16 4 30 -6 30 -6 -6 16
-32 19 -36 26 -34 57 2 36 28 62 41 41 5 -8 3 -9 -6 -4 -9 5 -11 4 -6 -3 5 -8
1 -10 -11 -6 -11 3 -14 2 -8 -3 13 -10 13 -23 1 -42 -7 -10 -6 -12 4 -6 9 6
11 4 5 -5 -6 -9 -4 -11 5 -5 9 5 11 4 6 -4 -4 -6 -4 -11 1 -10 4 1 10 0 13 -1
24 -9 38 -6 33 7 -4 10 -8 11 -13 4 -4 -8 -12 -5 -23 7 -17 18 -17 20 0 33 15
12 16 12 10 -3 -3 -10 -2 -18 3 -18 13 0 13 27 -1 35 -7 5 -3 14 10 26 12 11
21 25 21 30 0 6 -9 1 -20 -12 -10 -13 -19 -19 -20 -12 0 6 5 15 10 18 8 5 7
11 -1 21 -6 7 -15 12 -19 9 -5 -3 -11 -1 -15 5 -4 6 -11 8 -16 4 -6 -4 -6 -11
2 -20 6 -7 15 -12 19 -9 5 3 11 1 14 -4 4 -5 -2 -8 -11 -7 -10 2 -23 -4 -30
-13 -7 -10 -12 -11 -13 -4 0 6 5 15 10 18 8 5 7 11 0 20 -7 8 -9 19 -5 25 9
14 -8 13 -24 -2 -10 -11 -11 -9 -5 6 6 15 4 17 -6 11 -8 -5 -11 -4 -7 3 4 5
15 9 25 7 9 -1 11 0 5 2 -12 4 -17 17 -15 35 1 3 -5 9 -14 12 -8 3 -13 2 -10
-3 3 -5 -1 -11 -9 -15 -8 -3 -17 0 -21 6 -5 7 -2 8 6 3 10 -6 12 -4 7 8 -4 12
-1 17 10 17 9 0 13 3 9 8 -4 4 -12 7 -18 7 -14 0 -19 33 -7 41 5 3 6 10 3 16
-4 7 -2 8 5 4 6 -4 8 -13 5 -19 -4 -7 -3 -9 1 -4 13 11 17 49 5 42 -5 -3 -10
-2 -10 4 0 5 6 12 13 14 10 4 10 6 0 6 -7 1 -13 10 -13 22 0 11 5 17 10 14 14
-9 12 8 -2 24 -9 10 -9 12 -1 7 6 -3 14 -2 18 4 3 5 0 10 -9 10 -17 0 -15 34
2 36 7 1 17 2 23 3 8 1 8 5 -1 16 -10 12 -8 13 10 10 18 -3 20 -2 10 10 -7 8
-17 12 -23 8 -6 -3 -7 -1 -3 6 4 6 12 9 17 6 5 -4 9 -2 9 3 0 12 -30 26 -50
23 -11 -2 -9 2 4 12 12 9 16 19 11 27 -6 9 -4 11 5 5 8 -5 11 -3 8 6 -3 8 -11
13 -17 11 -7 -1 -10 2 -6 8 3 6 10 8 14 6 4 -3 13 0 21 6 12 8 12 9 -2 4 -12
-3 -21 4 -31 24 -14 27 -14 28 3 17 10 -6 16 -15 13 -21 -4 -5 -1 -6 6 -1 16
9 -27 58 -45 51 -8 -3 -9 1 0 19 6 13 14 21 17 19 4 -2 10 3 13 11 3 9 -1 18
-9 21 -8 4 -12 11 -8 17 4 6 1 7 -7 2 -10 -6 -12 -4 -6 10 4 12 0 22 -14 32
-11 8 -20 19 -20 25 0 6 7 5 17 -3 15 -13 15 -12 2 8 -11 19 -15 20 -22 8 -4
-8 -5 -21 -1 -28 6 -9 5 -9 -8 0 -8 7 -17 12 -19 10 -2 -1 0 3 6 8 18 18 17
49 -1 62 -10 7 -14 16 -11 20 4 4 13 1 19 -5 7 -7 17 -12 23 -12 5 0 2 5 -8
11 -9 6 -15 14 -12 19 9 15 -17 23 -27 9 -8 -11 -9 -10 -4 4 3 9 1 17 -4 17
-6 0 -10 -5 -10 -12 0 -28 -16 11 -19 46 -1 6 -7 2 -14 -9 -10 -12 -16 -14
-21 -7 -8 13 2 35 12 28 10 -6 37 17 40 34 2 13 0 12 -10 -1 -13 -16 -52 -23
-42 -7 3 4 -2 11 -10 14 -27 10 -18 23 14 19 41 -5 39 17 -2 38 -24 12 -26 15
-9 11 l24 -6 -26 26 c-28 28 -37 47 -13 27 10 -8 16 -9 21 -1 4 6 1 9 -5 8 -7
-2 -14 6 -16 17 -1 11 -8 21 -14 23 -6 2 -16 9 -23 15 -7 7 -19 13 -27 15 -34
8 -39 16 -24 42 l14 25 -4 -28 c-3 -15 -1 -25 4 -22 4 3 11 -1 14 -7 3 -7 3 1
-1 17 -8 40 -21 55 -40 48 -12 -5 -14 -3 -8 8 4 8 5 11 0 7 -9 -8 -35 15 -35
31 0 6 -4 11 -10 11 -5 0 -7 -8 -4 -17 5 -17 5 -17 -6 0 -6 9 -15 15 -20 12
-5 -3 -12 0 -16 6 -4 7 -3 9 4 5 20 -12 22 11 2 29 -11 10 -20 23 -20 29 0 6
5 4 10 -4 7 -12 11 -12 20 -2 5 6 7 10 4 7 -4 -3 -13 0 -20 6 -16 13 -37 2
-28 -13 4 -7 2 -8 -5 -4 -9 6 -9 11 -1 21 8 10 7 15 -2 19 -7 3 -2 4 12 1 14
-3 19 -2 12 1 -6 3 -10 9 -7 14 3 4 -5 6 -17 3 -23 -5 -23 -5 -3 11 11 10 14
15 8 11 -7 -3 -13 -1 -13 5 0 7 -7 5 -16 -4 -19 -19 -31 -21 -16 -3 7 8 7 18
2 27 -7 11 -10 12 -10 2 0 -7 -5 -10 -11 -6 -7 4 -7 9 -2 13 17 11 22 55 9 80
-11 20 -14 21 -19 7 -5 -11 -3 -15 5 -10 6 4 8 3 4 -4 -3 -5 0 -12 6 -15 7 -2
10 -8 6 -12 -5 -5 -16 1 -25 12 -10 11 -25 18 -33 16 -13 -4 -13 -3 0 6 8 5
17 8 21 5 11 -7 22 57 12 67 -6 6 -14 0 -21 -16 -7 -15 -8 -24 -2 -20 5 3 10
2 10 -3 0 -5 -9 -12 -20 -15 -20 -5 -24 12 -5 25 5 4 4 17 -5 33 l-14 27 -17
-21 c-17 -20 -17 -20 -15 12 0 21 -3 31 -11 29 -7 -1 -13 2 -13 8 0 5 6 10 13
10 8 0 7 3 -3 10 -9 6 -20 5 -30 -3 -13 -11 -13 -10 -1 6 10 13 11 20 2 30 -6
8 -7 18 -3 22 4 5 1 5 -6 1 -7 -4 -10 -11 -7 -16 3 -4 -2 -10 -10 -13 -10 -4
-12 -1 -8 10 5 13 1 15 -21 11 -14 -3 -29 -1 -32 4 -3 4 -9 6 -14 3 -5 -3 -11
-1 -14 4 -7 11 13 9 32 -2 29 -19 9 19 -23 43 -19 14 -19 14 -6 -2 17 -22 -2
-24 -23 -2 -9 8 -16 11 -16 5 0 -6 -11 -10 -24 -9 -14 1 -22 6 -20 10 3 5 -2
11 -10 14 -12 5 -13 11 -5 27 l10 22 -19 -21 c-18 -21 -19 -22 -31 -3 -7 12
-17 17 -24 12 -9 -5 -9 -3 0 9 7 8 9 19 5 23 -4 5 1 5 11 2 18 -7 25 17 8 28
-10 6 -34 -29 -26 -37 2 -2 -5 -5 -16 -5 -14 -1 -19 3 -15 12 2 7 0 16 -7 19
-7 2 -1 4 13 3 19 -2 25 3 26 21 1 18 -1 20 -12 11 -10 -8 -14 -8 -14 0 0 6
-3 10 -7 10 -23 -4 -40 3 -40 15 0 8 7 12 16 9 13 -4 13 -2 -1 10 -14 11 -15
17 -5 28 7 7 1 5 -12 -6 -14 -11 -21 -14 -17 -7 6 11 -5 17 -26 13 -5 0 -8 4
-8 10 0 6 8 9 18 7 11 -3 19 0 19 7 0 8 -12 12 -29 11 -30 -2 -35 3 -17 21 9
9 7 12 -10 10 -13 -1 -20 -6 -16 -15 2 -7 1 -10 -4 -7 -6 3 -9 14 -8 25 1 10
5 16 9 14 4 -3 8 -1 8 5 0 12 -28 41 -41 41 -5 0 -9 11 -9 25 0 14 -3 24 -7
23 -18 -6 -73 26 -73 41 0 10 -3 12 -8 5 -5 -9 -11 -8 -20 2 -7 8 -10 14 -6
14 3 0 0 8 -7 18 -11 14 -11 15 1 5 17 -15 44 -17 35 -3 -4 6 -9 8 -13 6 -4
-2 -16 2 -26 10 -15 10 -16 17 -8 27 9 10 8 14 -3 15 -8 1 -22 3 -30 4 -17 2
-21 18 -5 18 6 0 10 5 10 12 0 6 -10 2 -23 -10 -13 -12 -30 -22 -38 -22 -12 0
-12 -2 1 -10 9 -6 10 -10 3 -10 -21 0 -32 32 -17 48 8 7 14 19 13 25 0 9 -2 9
-5 0 -7 -16 -54 5 -54 24 0 8 -4 12 -9 9 -5 -3 -14 1 -20 8 -10 12 -9 13 7 9
12 -3 22 2 26 12 3 9 2 13 -3 10 -5 -3 -12 -1 -16 4 -3 7 -15 7 -29 1 -25 -9
-51 -8 -62 2 -3 4 6 5 20 4 15 -2 29 1 33 7 3 6 1 7 -5 3 -7 -4 -12 -2 -12 4
0 7 -6 10 -12 7 -7 -2 -21 0 -32 5 -14 7 -16 7 -11 -2 12 -20 -27 5 -49 31
l-19 22 -14 -24 c-8 -13 -12 -17 -9 -7 7 25 -5 30 -28 11 -12 -10 -18 -14 -14
-9 4 5 3 18 -3 29 -7 13 -7 17 -1 13 6 -3 13 -2 17 4 3 5 11 10 16 10 6 0 8
-4 5 -8 -3 -5 1 -9 9 -9 11 0 12 4 3 14 -6 7 -19 11 -29 8 -20 -7 -59 14 -59
31 0 15 -27 26 -35 15 -6 -11 -45 -21 -45 -12 0 5 10 12 22 18 19 8 20 10 4
16 -10 4 -15 3 -11 -3 3 -6 2 -10 -2 -10 -5 0 -14 9 -21 21 -12 19 -15 20 -37
5 -31 -20 -41 -20 -21 0 9 8 14 19 11 24 -8 12 -38 5 -43 -10 -3 -8 0 -10 8
-5 9 6 11 4 5 -5 -6 -10 -11 -9 -21 5 -7 10 -10 23 -7 29 4 6 0 5 -9 -2 -33
-27 -98 -17 -98 14 0 5 5 3 12 -4 18 -18 27 -15 25 8 -1 12 -5 16 -10 11 -12
-12 -39 -2 -31 10 3 5 2 9 -3 8 -19 -3 -34 2 -29 9 3 5 -1 9 -9 9 -11 0 -12
-4 -4 -13 8 -9 1 -11 -28 -8 -91 12 -103 12 -98 3 4 -5 -1 -6 -10 -3 -22 9 -5
24 29 28 15 1 32 8 39 15 9 9 3 11 -25 9 -20 -2 -34 -6 -31 -10 2 -5 -4 -8
-14 -8 -11 0 -25 -6 -32 -12 -11 -11 -12 -10 -6 1 6 10 2 12 -13 7 -12 -4 -44
-9 -72 -11 -28 -1 -57 -8 -64 -14 -10 -8 -16 -8 -24 2 -10 12 -2 40 12 38 3
-1 6 1 6 4 0 6 -6 6 -25 -1 -8 -4 -16 -16 -16 -28 -1 -16 -2 -17 -6 -4 -3 12
-13 17 -29 16 -17 -2 -23 -7 -19 -18 5 -12 4 -12 -6 -3 -10 10 -15 9 -24 -4
-11 -15 -13 -15 -19 5 -4 13 -12 19 -18 16 -7 -5 -8 -2 -3 6 6 10 11 9 22 -5
14 -20 18 -9 4 14 -7 11 -13 11 -32 0 -13 -7 -25 -12 -26 -11 -2 1 -10 2 -19
2 -11 0 -14 -6 -9 -22 6 -21 5 -22 -6 -4 -9 14 -9 24 -1 37 12 18 11 19 -48 4
-8 -2 -21 -4 -28 -4 -8 -1 -10 -6 -6 -13 5 -8 1 -7 -10 2 -22 18 -47 22 -61
10 -8 -6 -19 -5 -30 4 -12 8 -28 11 -40 7 -24 -9 -36 -8 -52 2 -12 8 -77 2
-93 -8 -6 -4 -7 -12 -4 -18 5 -9 4 -9 -6 0 -8 7 -22 8 -40 3 -29 -8 -58 8 -43
23 3 4 3 7 0 7 -4 0 -14 -11 -23 -25z m202 8 c-4 -5 -12 -9 -17 -9 -5 -1 -10
-2 -11 -4 -2 -1 -14 -3 -27 -4 -20 -2 -21 -1 -9 8 17 13 76 20 64 9z m88 -9
c3 -8 2 -12 -4 -9 -6 3 -10 10 -10 16 0 14 7 11 14 -7z m-266 -19 c-3 -3 -9 2
-12 12 -6 14 -5 15 5 6 7 -7 10 -15 7 -18z m352 14 c0 -9 -31 -21 -37 -15 -3
3 -3 9 1 14 6 10 36 12 36 1z m-117 -9 c-7 -8 -52 -7 -47 1 2 4 15 6 28 5 13
0 22 -3 19 -6z m207 2 c0 -8 -34 -31 -45 -31 -5 0 -2 4 8 10 9 6 15 14 13 18
-3 4 1 8 9 8 8 0 15 -2 15 -5z m-409 -25 c-13 -13 -26 -3 -16 12 3 6 11 8 17
5 6 -4 6 -10 -1 -17z m479 12 c0 -5 4 -8 9 -4 5 3 12 1 15 -4 8 -12 -14 -8
-39 7 -18 10 -18 11 -2 12 9 0 17 -5 17 -11z m115 -10 c-4 -5 -1 -9 5 -9 6 0
8 -5 5 -11 -9 -13 -15 -7 -20 20 -2 12 0 19 6 16 5 -4 7 -11 4 -16z m-915 1
c0 -5 -5 -10 -11 -10 -5 0 -7 5 -4 10 3 6 8 10 11 10 2 0 4 -4 4 -10z m35 1
c3 -5 2 -12 -3 -15 -5 -3 -9 1 -9 9 0 17 3 19 12 6z m250 -11 c-3 -5 -12 -10
-18 -10 -7 0 -6 4 3 10 19 12 23 12 15 0z m1064 -23 c0 -9 -2 -8 -6 1 -2 6
-10 9 -15 6 -7 -4 -8 -2 -4 5 9 13 26 5 25 -12z m-1614 3 c3 -5 1 -10 -4 -10
-6 0 -11 5 -11 10 0 6 2 10 4 10 3 0 8 -4 11 -10z m-249 -12 c-15 -48 -15 -49
-30 -36 -16 15 -11 35 12 41 10 3 18 5 19 6 1 0 1 -5 -1 -11z m-71 -27 c3 -5
2 -12 -3 -15 -5 -3 -9 1 -9 9 0 17 3 19 12 6z m2151 -36 c1 -8 -4 -11 -12 -8
-15 6 -18 16 -7 26 8 9 16 1 19 -18z m-2766 -23 c3 -3 -6 -1 -19 3 -16 5 -21
4 -17 -4 5 -7 1 -9 -9 -5 -12 5 -13 9 -4 20 11 14 16 13 49 -14z m2727 12 c-8
-8 -48 -13 -43 -6 2 4 14 8 26 9 12 1 20 0 17 -3z m125 -33 c2 -7 -4 -15 -13
-16 -14 -2 -18 16 -10 45 2 7 19 -14 23 -29z m25 -24 c0 -8 -6 -14 -14 -14 -9
0 -10 4 -2 14 6 7 12 13 14 13 1 0 2 -6 2 -13z m-3206 -60 c-10 -9 -11 -8 -5
6 3 10 9 15 12 12 3 -3 0 -11 -7 -18z m3523 -145 c-7 -4 -13 -15 -15 -24 -3
-11 -8 -15 -17 -9 -18 11 -5 37 21 38 12 1 17 -1 11 -5z m76 -46 c-7 -7 -3
-17 12 -29 l23 -19 -26 15 c-18 11 -31 12 -45 5 -17 -8 -17 -8 -3 4 9 7 14 18
12 25 -3 7 4 11 16 10 14 -1 17 -5 11 -11z m-25 -56 c-3 -5 -12 -10 -18 -10
-7 0 -6 4 3 10 19 12 23 12 15 0z m82 -36 c-3 -3 -12 -4 -19 -1 -8 3 -5 6 6 6
11 1 17 -2 13 -5z m33 -49 c-5 -7 -9 -14 -7 -16 1 -2 0 -3 -2 -1 -11 7 -7 29
5 29 9 0 11 -4 4 -12z m-35 -15 c3 -6 -1 -7 -9 -4 -18 7 -21 14 -7 14 6 0 13
-4 16 -10z m77 -14 c4 3 9 1 12 -4 3 -6 -1 -9 -10 -8 -9 1 -21 11 -26 22 -9
18 -8 18 5 2 8 -10 16 -15 19 -12z m60 -33 c-6 -2 -9 -10 -6 -15 4 -7 2 -8 -5
-4 -13 9 -5 26 12 25 9 0 8 -2 -1 -6z m-4728 -78 c-5 -12 -10 -13 -20 -4 -19
15 -18 19 6 19 13 0 18 -5 14 -15z m-139 -55 c3 -5 1 -10 -4 -10 -6 0 -11 5
-11 10 0 6 2 10 4 10 3 0 8 -4 11 -10z m-515 -184 c0 -2 -8 -10 -17 -17 -16
-13 -17 -12 -4 4 13 16 21 21 21 13z m-43 -26 c-2 -11 -6 -22 -9 -26 -4 -3 -5
2 -4 13 2 10 -2 21 -8 25 -7 5 -4 8 6 8 12 0 17 -6 15 -20z m-52 -20 c3 -5 2
-10 -4 -10 -5 0 -13 5 -16 10 -3 6 -2 10 4 10 5 0 13 -4 16 -10z m-120 -78
c-3 -3 -11 0 -18 7 -9 10 -8 11 6 5 10 -3 15 -9 12 -12z m6080 -32 c-3 -5 -12
-10 -18 -10 -7 0 -6 4 3 10 19 12 23 12 15 0z m55 -29 c0 -5 -7 -12 -16 -15
-14 -5 -15 -4 -4 9 14 17 20 19 20 6z m58 -126 c-3 -3 -9 2 -12 12 -6 14 -5
15 5 6 7 -7 10 -15 7 -18z m-6705 -301 c-7 -3 -9 -12 -6 -20 4 -12 8 -12 22
-2 14 12 15 11 2 -5 -14 -18 -16 -18 -28 -1 -7 10 -13 12 -13 6 0 -7 -5 -12
-12 -12 -6 0 -3 9 7 20 10 11 23 20 29 19 7 0 7 -2 -1 -5z m7003 -72 c-4 -3
-14 2 -24 12 -16 18 -16 18 6 6 13 -6 21 -14 18 -18z m-7061 -42 c-3 -5 -11
-10 -16 -10 -6 0 -7 5 -4 10 3 6 11 10 16 10 6 0 7 -4 4 -10z m-12 -37 c-3 -7
-6 -13 -8 -13 -2 0 -5 6 -8 13 -3 8 1 14 8 14 7 0 11 -6 8 -14z m7122 -23 c3
-6 -1 -7 -9 -4 -18 7 -21 14 -7 14 6 0 13 -4 16 -10z m-7205 -95 c0 -2 -5 -7
-12 -11 -6 -4 -8 -3 -5 3 4 6 0 13 -8 17 -8 3 -15 0 -15 -6 0 -6 -3 -9 -6 -5
-14 13 7 27 27 17 10 -6 19 -13 19 -15z m-73 -40 c0 -8 -4 -12 -9 -9 -5 3 -6
10 -3 15 9 13 12 11 12 -6z m7391 -148 c9 -10 4 -13 -19 -12 -26 0 -27 1 -12
12 21 16 18 16 31 0z m-7568 -81 c0 -3 -4 -8 -10 -11 -5 -3 -10 -1 -10 4 0 6
5 11 10 11 6 0 10 -2 10 -4z m-70 -40 c0 -3 -4 -8 -10 -11 -5 -3 -10 -1 -10 4
0 6 5 11 10 11 6 0 10 -2 10 -4z m-55 -116 c-3 -5 -12 -10 -18 -10 -7 0 -6 4
3 10 19 12 23 12 15 0z m-294 -393 c-6 -8 -7 -18 -3 -23 4 -4 -1 -2 -10 5 -19
14 -25 26 -8 16 6 -3 10 -1 10 4 0 6 5 11 11 11 8 0 9 -4 0 -13z m8029 -22
c-7 -8 -17 -15 -23 -15 -6 0 -2 7 9 15 25 19 30 19 14 0z m36 -117 c3 -4 -1
-5 -10 -4 -8 1 -18 5 -22 8 -3 4 1 5 10 4 8 -1 18 -5 22 -8z m-8170 -33 c-6
-7 -13 -9 -16 -5 -3 4 -12 9 -20 12 -8 3 -1 6 16 5 25 0 29 -3 20 -12z m8165
-28 c-10 -9 -11 -8 -5 6 3 10 9 15 12 12 3 -3 0 -11 -7 -18z m60 -144 c13 -16
12 -17 -3 -4 -10 7 -18 15 -18 17 0 8 8 3 21 -13z m66 -90 c-4 -3 -2 -11 3
-18 7 -8 5 -12 -4 -12 -8 0 -12 7 -11 16 5 22 4 21 12 21 3 0 3 -3 0 -7z
m-8577 -25 c0 -6 -3 -8 -6 -5 -4 3 -16 2 -26 -4 -15 -8 -23 -8 -32 1 -8 8 -7
10 5 5 10 -4 20 -2 24 4 8 15 35 14 35 -1z m-70 -94 c0 -3 -61 -34 -67 -34
-12 0 1 17 20 25 21 10 47 15 47 9z m8709 -54 c-1 -3 3 -16 10 -30 11 -24 11
-24 -3 -6 -11 13 -16 15 -16 6 0 -7 -3 -10 -6 -7 -4 4 -2 13 5 21 8 10 9 16 1
19 -7 4 -7 5 1 4 6 -2 9 -5 8 -7z m21 -125 c-7 -9 -15 -13 -19 -10 -3 3 1 10
9 15 21 14 24 12 10 -5z m40 -45 c0 -3 -10 -7 -22 -7 -18 -2 -20 0 -8 7 10 7
11 10 3 10 -7 0 -13 5 -13 10 0 6 8 5 20 -2 11 -7 20 -15 20 -18z m45 -89 c3
-5 0 -13 -6 -17 -7 -4 -9 -3 -5 4 3 5 0 13 -6 15 -9 4 -10 6 -1 6 6 1 14 -3
18 -8z m-21 -51 c-6 -6 -10 -3 -10 10 0 13 4 16 10 10 7 -7 7 -13 0 -20z
m-9010 -75 c-4 -8 -13 -15 -22 -15 -13 0 -12 3 4 15 24 18 25 18 18 0z m9156
-200 c7 -8 9 -15 6 -15 -4 0 -14 7 -22 15 -9 8 -11 15 -6 15 5 0 15 -7 22 -15z
m-9165 -54 c-3 -6 -11 -11 -16 -11 -5 0 -4 6 3 14 14 16 24 13 13 -3z m9172
-86 c0 -8 -4 -12 -9 -9 -5 3 -6 10 -3 15 9 13 12 11 12 -6z m14 -38 c-10 -9
-11 -8 -5 6 3 10 9 15 12 12 3 -3 0 -11 -7 -18z m166 -234 c-4 -3 -2 -12 4
-20 6 -7 8 -13 4 -13 -4 0 -2 -7 5 -15 9 -10 9 -15 1 -15 -6 0 -11 5 -11 11 0
5 -6 7 -12 3 -9 -5 -9 -2 1 9 12 15 11 17 -3 17 -19 0 -21 16 -3 23 18 8 21 8
14 0z m31 -167 c-7 -8 -15 -12 -17 -11 -5 6 10 25 20 25 5 0 4 -6 -3 -14z
m-9383 -156 c6 0 -3 -8 -18 -16 -22 -12 -26 -18 -17 -29 8 -9 8 -15 0 -20 -6
-4 -9 -1 -8 6 2 6 -3 14 -10 16 -8 3 -10 -1 -5 -14 3 -10 3 -15 -1 -11 -26 22
0 79 32 73 9 -2 22 -4 27 -5z m9482 -10 c-19 -25 -20 -26 -14 -8 3 9 1 19 -6
21 -7 3 -2 4 10 4 18 -1 20 -4 10 -17z m48 -79 c3 -5 2 -12 -3 -15 -5 -3 -9 1
-9 9 0 17 3 19 12 6z m-9598 -36 c0 -8 -4 -12 -9 -9 -5 3 -6 10 -3 15 9 13 12
11 12 -6z m9623 11 c0 -2 -7 -7 -16 -10 -8 -3 -12 -2 -9 4 6 10 25 14 25 6z
m-9720 -136 c0 -5 -2 -10 -4 -10 -3 0 -8 5 -11 10 -3 6 -1 10 4 10 6 0 11 -4
11 -10z m9699 -96 c-14 -13 -16 -13 -16 0 0 8 5 12 10 9 7 -4 8 1 3 13 -6 15
-5 17 5 6 11 -10 10 -15 -2 -28z m-9719 -2 c-6 -2 -8 -7 -6 -11 3 -4 0 -13 -6
-21 -8 -12 -9 -12 -4 2 6 20 -10 34 -17 16 -3 -8 -6 -6 -6 5 -1 9 4 17 10 17
5 0 7 5 4 11 -4 6 2 5 14 -3 12 -7 17 -14 11 -16z m-66 -48 c3 -8 2 -12 -4 -9
-6 3 -10 10 -10 16 0 14 7 11 14 -7z m-196 -198 c-7 -8 -15 -12 -17 -11 -5 6
10 25 20 25 5 0 4 -6 -3 -14z m-33 -6 c4 -6 -1 -7 -12 -3 -15 6 -16 4 -6 -8 8
-9 9 -20 3 -29 -7 -11 -10 -12 -10 -2 0 7 -5 10 -10 7 -6 -4 -7 -11 -4 -17 5
-7 2 -8 -5 -4 -9 6 -8 13 5 27 9 10 14 19 10 19 -4 0 -4 5 -1 10 8 13 22 13
30 0z m-136 -141 c-10 -6 -11 -9 -1 -9 6 0 12 -4 12 -10 0 -5 -6 -9 -12 -7 -7
1 -12 -4 -10 -12 3 -12 0 -12 -12 -2 -14 12 -14 15 2 36 9 13 21 21 26 18 4
-3 2 -9 -5 -14z m10258 -445 c-3 -3 -12 -4 -19 -1 -8 3 -5 6 6 6 11 1 17 -2
13 -5z m-12 -24 c3 -5 1 -10 -4 -10 -6 0 -11 5 -11 10 0 6 2 10 4 10 3 0 8 -4
11 -10z m-10655 -180 c0 -5 -2 -10 -4 -10 -3 0 -8 5 -11 10 -3 6 -1 10 4 10 6
0 11 -4 11 -10z m10660 -24 c0 -2 -7 -7 -16 -10 -8 -3 -12 -2 -9 4 6 10 25 14
25 6z m-10620 -60 c0 -3 -4 -8 -10 -11 -5 -3 -10 -1 -10 4 0 6 5 11 10 11 6 0
10 -2 10 -4z m-5 -36 c-3 -5 -11 -10 -16 -10 -6 0 -7 5 -4 10 3 6 11 10 16 10
6 0 7 -4 4 -10z m-12 -97 c-3 -7 -9 -10 -14 -7 -14 8 -11 21 5 21 8 0 12 -6 9
-14z m-12 -76 c-10 -9 -11 -8 -5 6 3 10 9 15 12 12 3 -3 0 -11 -7 -18z m10595
-40 c-4 6 -3 14 2 17 4 2 8 -4 9 -14 1 -12 -5 -18 -16 -17 -9 0 -18 10 -18 20
-2 19 -2 19 13 1 9 -11 13 -14 10 -7z m-10576 -131 c-7 -7 -14 -6 -21 1 -9 9
-7 12 9 10 14 -1 18 -5 12 -11z m37 -48 c-3 -7 -5 -2 -5 12 0 14 2 19 5 13 2
-7 2 -19 0 -25z m73 -69 c0 -5 -4 -7 -10 -4 -5 3 -10 1 -10 -6 0 -7 -3 -10 -6
-6 -8 7 4 27 17 27 5 0 9 -5 9 -11z m10454 -29 c-6 -6 -10 -2 -11 12 -2 16 1
18 10 9 7 -7 8 -14 1 -21z m-10383 -107 c-11 -4 -11 -7 0 -14 7 -4 10 -11 6
-16 -9 -9 -28 17 -21 29 3 4 11 8 17 7 8 0 7 -3 -2 -6z m10298 -349 c-20 -21
-53 -25 -68 -8 -3 4 2 4 11 1 12 -4 21 0 28 13 7 13 16 17 28 13 15 -6 15 -5
3 10 -7 9 -17 15 -20 12 -4 -2 -8 3 -8 11 0 11 6 9 24 -8 l23 -22 -21 -22z
m-35 -72 c3 -5 -1 -9 -9 -9 -8 0 -12 4 -9 9 3 4 7 8 9 8 2 0 6 -4 9 -8z m-37
-37 c0 -8 -4 -12 -9 -9 -5 3 -6 10 -3 15 9 13 12 11 12 -6z m-26 -38 c-10 -9
-11 -8 -5 6 3 10 9 15 12 12 3 -3 0 -11 -7 -18z m4 -66 c-3 -5 -1 -12 4 -15
14 -9 7 -39 -10 -44 -9 -2 -10 0 -4 5 12 9 13 23 3 39 -4 6 -5 14 -1 18 10 9
15 7 8 -3z m-35 -75 c0 -2 -7 -7 -16 -10 -8 -3 -12 -2 -9 4 6 10 25 14 25 6z
m-9823 -136 c-1 -20 -9 -25 -20 -13 -4 3 -2 12 4 20 15 18 18 17 16 -7z m-13
-138 c3 -5 -1 -9 -9 -9 -8 0 -12 4 -9 9 3 4 7 8 9 8 2 0 6 -4 9 -8z m9769 -27
c-3 -9 -8 -14 -10 -11 -3 3 -2 9 2 15 9 16 15 13 8 -4z m-9822 -68 c-10 -9
-11 -8 -5 6 3 10 9 15 12 12 3 -3 0 -11 -7 -18z m-60 -90 c-10 -9 -11 -8 -5 6
3 10 9 15 12 12 3 -3 0 -11 -7 -18z m9951 -64 c-6 -2 -9 -10 -6 -15 4 -7 2 -8
-5 -4 -13 9 -5 26 12 25 9 0 8 -2 -1 -6z m138 -223 c0 -5 -2 -10 -4 -10 -3 0
-8 5 -11 10 -3 6 -1 10 4 10 6 0 11 -4 11 -10z m-10286 -61 c3 -3 -4 -5 -14
-6 -11 -1 -20 2 -20 7 0 8 25 8 34 -1z m10323 -26 c1 -22 -1 -24 -8 -10 -6 9
-7 22 -4 27 9 14 10 13 12 -17z m-10277 -7 c0 -2 -7 -7 -16 -10 -8 -3 -12 -2
-9 4 6 10 25 14 25 6z m10433 -290 c4 -10 1 -13 -8 -9 -8 3 -12 9 -9 14 7 12
11 11 17 -5z m-10294 -90 c-20 -17 -49 -25 -55 -14 -4 6 -3 8 2 5 6 -3 16 -2
24 4 14 8 38 13 29 5z m10312 -69 c-10 -9 -11 -8 -5 6 3 10 9 15 12 12 3 -3 0
-11 -7 -18z m-10311 9 c0 -3 -4 -8 -10 -11 -5 -3 -10 -1 -10 4 0 6 5 11 10 11
6 0 10 -2 10 -4z m10315 -126 c3 -5 1 -10 -4 -10 -6 0 -11 5 -11 10 0 6 2 10
4 10 3 0 8 -4 11 -10z m-10315 -134 c0 -2 -7 -6 -15 -10 -8 -3 -15 -1 -15 4 0
6 7 10 15 10 8 0 15 -2 15 -4z m-38 -48 c-7 -7 -12 -8 -12 -2 0 14 12 26 19
19 2 -3 -1 -11 -7 -17z m10598 2 c0 -5 -5 -10 -11 -10 -5 0 -7 5 -4 10 3 6 8
10 11 10 2 0 4 -4 4 -10z m137 -150 c-6 -11 -13 -17 -16 -15 -2 3 2 11 9 20 8
10 9 15 1 15 -6 0 -11 5 -11 11 0 8 4 8 15 -1 11 -9 12 -16 2 -30z m-10690
-76 c-3 -3 -12 -4 -19 -1 -8 3 -5 6 6 6 11 1 17 -2 13 -5z m29 -59 c-1 -8 -6
-18 -11 -22 -4 -4 -5 -2 -1 5 4 7 2 12 -6 12 -9 0 -9 3 2 10 19 12 19 13 16
-5z m64 -80 c0 -5 -5 -3 -10 5 -5 8 -10 20 -10 25 0 6 5 3 10 -5 5 -8 10 -19
10 -25z m12 -30 c2 3 5 -2 5 -10 0 -19 0 -19 -23 7 -12 14 -13 18 -3 10 9 -6
18 -10 21 -7z m7 -52 c-6 -7 -8 -13 -3 -13 4 0 0 -6 -11 -13 -12 -10 -14 -16
-7 -21 7 -4 12 -2 12 5 0 7 3 9 6 6 4 -4 1 -13 -5 -21 -8 -10 -9 -16 -1 -21 5
-3 10 -1 10 4 0 6 5 11 11 11 5 0 7 -5 3 -11 -4 -7 0 -9 14 -5 11 4 23 2 27
-3 4 -7 -1 -8 -11 -4 -12 4 -15 3 -10 -5 4 -8 2 -10 -8 -6 -10 4 -14 0 -11
-13 1 -10 8 -17 15 -15 6 1 9 -2 5 -8 -3 -5 0 -10 7 -10 10 0 9 -3 -2 -10 -20
-13 -54 18 -39 36 12 15 -5 29 -23 18 -7 -4 -8 -3 -4 5 4 6 4 17 -1 24 -11 15
-10 26 5 53 6 12 9 23 7 26 -3 3 2 5 10 5 11 0 12 -4 4 -14z m32 -46 c-10 -9
-11 -8 -5 6 3 10 9 15 12 12 3 -3 0 -11 -7 -18z m62 -52 c-3 -9 -8 -14 -10
-11 -3 3 -2 9 2 15 9 16 15 13 8 -4z m-30 -20 c-3 -9 -8 -14 -10 -11 -3 3 -2
9 2 15 9 16 15 13 8 -4z m10637 -47 c0 -10 -12 -10 -28 0 -7 5 -10 16 -6 26 6
15 7 15 20 -1 7 -10 14 -21 14 -25z m-10606 10 c-3 -4 -11 -5 -19 -1 -21 7
-19 12 4 10 11 0 18 -5 15 -9z m61 2 c3 -5 1 -10 -4 -10 -6 0 -11 5 -11 10 0
6 2 10 4 10 3 0 8 -4 11 -10z m10572 -66 c-3 -3 -12 -4 -19 -1 -8 3 -5 6 6 6
11 1 17 -2 13 -5z m-32 -14 c3 -5 1 -10 -4 -10 -6 0 -11 5 -11 10 0 6 2 10 4
10 3 0 8 -4 11 -10z m46 -13 c-10 -9 -11 -8 -5 6 3 10 9 15 12 12 3 -3 0 -11
-7 -18z m34 -7 c3 -5 1 -10 -4 -10 -6 0 -11 5 -11 10 0 6 2 10 4 10 3 0 8 -4
11 -10z m-10520 -20 c3 -5 1 -10 -4 -10 -6 0 -11 5 -11 10 0 6 2 10 4 10 3 0
8 -4 11 -10z m10490 0 c3 -6 -1 -7 -9 -4 -18 7 -21 14 -7 14 6 0 13 -4 16 -10z
m-10517 -35 c-3 -3 -9 2 -12 12 -6 14 -5 15 5 6 7 -7 10 -15 7 -18z m36 -7
c-3 -4 -9 -8 -15 -8 -5 0 -9 4 -9 8 0 5 7 9 15 9 8 0 12 -4 9 -9z m10596 -39
c0 -14 -17 -10 -23 5 -4 10 -1 13 9 9 7 -3 14 -9 14 -14z m-16 -102 c-6 -35
-13 -48 -15 -26 -1 8 -2 26 -3 41 -2 18 1 25 11 21 9 -3 11 -15 7 -36z
m-10470 24 c-8 -8 -34 -10 -38 -2 -3 4 6 7 19 7 14 0 22 -2 19 -5z m10444 -66
c-3 -3 -9 2 -12 12 -6 14 -5 15 5 6 7 -7 10 -15 7 -18z m61 -34 c7 -5 9 -11 5
-14 -5 -3 -15 1 -22 9 -14 16 -5 18 17 5z m-10453 -23 c4 -6 3 -8 -4 -4 -6 3
-13 2 -17 -4 -3 -5 -11 -10 -18 -10 -6 0 -2 7 9 15 23 18 21 17 30 3z m10455
-81 c-10 -9 -11 -8 -5 6 3 10 9 15 12 12 3 -3 0 -11 -7 -18z m39 9 c0 -2 -8
-10 -17 -17 -16 -13 -17 -12 -4 4 13 16 21 21 21 13z m-10305 -26 c3 -5 1 -10
-4 -10 -6 0 -11 5 -11 10 0 6 2 10 4 10 3 0 8 -4 11 -10z m60 1 c3 -5 2 -12
-3 -15 -5 -3 -9 1 -9 9 0 17 3 19 12 6z m-111 -27 c3 -8 2 -12 -4 -9 -6 3 -10
10 -10 16 0 14 7 11 14 -7z m91 -14 c-3 -5 -12 -10 -18 -10 -7 0 -6 4 3 10 19
12 23 12 15 0z m10279 -58 c3 -5 -1 -9 -9 -9 -8 0 -12 4 -9 9 3 4 7 8 9 8 2 0
6 -4 9 -8z m81 -91 c3 -5 2 -12 -3 -15 -5 -3 -9 1 -9 9 0 17 3 19 12 6z
m-9815 -15 c0 -2 -7 -7 -16 -10 -8 -3 -12 -2 -9 4 6 10 25 14 25 6z m10235
-256 c3 -5 1 -10 -4 -10 -6 0 -11 5 -11 10 0 6 2 10 4 10 3 0 8 -4 11 -10z
m58 -35 c-3 -9 -8 -14 -10 -11 -3 3 -2 9 2 15 9 16 15 13 8 -4z m-32 -8 c-6
-8 -7 -18 -3 -22 4 -5 1 -5 -6 -1 -10 6 -10 11 -1 22 6 8 14 14 16 14 3 0 0
-6 -6 -13z m-10056 -57 c-3 -5 -12 -10 -18 -10 -7 0 -6 4 3 10 19 12 23 12 15
0z m10104 -4 c8 -10 9 -16 1 -21 -6 -4 -9 -1 -8 7 2 7 -3 12 -10 10 -8 -1 -11
2 -7 8 8 13 10 13 24 -4z m149 -141 c-3 -3 -9 2 -12 12 -6 14 -5 15 5 6 7 -7
10 -15 7 -18z m159 -77 c-3 -8 -6 -5 -6 6 -1 11 2 17 5 13 3 -3 4 -12 1 -19z
m23 -18 c0 -5 -5 -10 -11 -10 -5 0 -7 5 -4 10 3 6 8 10 11 10 2 0 4 -4 4 -10z
m-10400 -34 c0 -2 -7 -9 -15 -16 -13 -11 -14 -10 -9 4 5 14 24 23 24 12z
m10545 -24 c-3 -3 -11 0 -18 7 -9 10 -8 11 6 5 10 -3 15 -9 12 -12z m-10545
-66 c0 -3 -4 -8 -10 -11 -5 -3 -10 -1 -10 4 0 6 5 11 10 11 6 0 10 -2 10 -4z
m-227 -651 c-3 -9 -8 -14 -10 -11 -3 3 -2 9 2 15 9 16 15 13 8 -4z m-88 -75
c-3 -5 -12 -10 -18 -10 -7 0 -6 4 3 10 19 12 23 12 15 0z m-75 -26 c0 -8 -19
-13 -24 -6 -3 5 1 9 9 9 8 0 15 -2 15 -3z m-21 -28 c9 -11 9 -16 -1 -22 -7 -4
-10 -4 -6 1 4 4 3 14 -3 22 -6 7 -9 13 -6 13 2 0 10 -6 16 -14z m-69 -36 c0
-5 -4 -10 -10 -10 -5 0 -10 5 -10 10 0 6 5 10 10 10 6 0 10 -4 10 -10z m14
-53 c3 -16 1 -25 -5 -22 -5 4 -7 11 -4 16 4 5 2 9 -4 9 -6 0 -8 7 -4 15 7 20
11 16 17 -18z m-34 -67 c0 -11 -22 -18 -38 -12 -9 3 -10 8 -2 18 12 13 40 9
40 -6z m-80 -124 c0 -2 -7 -7 -16 -10 -8 -3 -12 -2 -9 4 6 10 25 14 25 6z"/>
<path d="M1002 7764 c-7 -8 -8 -14 -3 -14 10 0 25 19 20 25 -2 1 -10 -3 -17
-11z"/>
<path d="M10516 5323 c-6 -14 -5 -15 5 -6 7 7 10 15 7 18 -3 3 -9 -2 -12 -12z"/>
<path d="M570 2876 c0 -2 8 -10 18 -17 15 -13 16 -12 3 4 -13 16 -21 21 -21
13z"/>
<path d="M5715 12340 c4 -12 1 -28 -6 -36 -10 -12 -9 -13 5 -8 17 6 20 64 3
64 -5 0 -5 -9 -2 -20z"/>
<path d="M5943 12335 c0 -8 4 -15 9 -15 4 0 8 4 8 9 0 6 -4 12 -8 15 -5 3 -9
-1 -9 -9z"/>
<path d="M4875 12170 c-3 -5 -1 -10 4 -10 6 0 11 5 11 10 0 6 -2 10 -4 10 -3
0 -8 -4 -11 -10z"/>
<path d="M8230 12141 c0 -7 -5 -9 -12 -5 -7 5 -8 3 -3 -5 5 -9 10 -10 18 -2 6
6 8 14 4 18 -4 3 -7 1 -7 -6z"/>
<path d="M4678 12084 c-4 -5 0 -18 8 -29 15 -20 17 -12 5 19 -4 11 -10 15 -13
10z"/>
<path d="M8441 11973 c-10 -26 -10 -27 4 -9 8 11 15 23 15 28 0 15 -7 8 -19
-19z"/>
<path d="M4365 11880 c-4 -6 -10 -8 -15 -5 -4 3 -10 -2 -14 -10 -3 -8 -1 -17
3 -20 8 -5 20 6 35 33 9 14 0 17 -9 2z"/>
<path d="M8662 11768 c2 -6 10 -13 16 -14 7 -1 8 0 2 3 -5 2 -8 9 -4 14 3 5 0
9 -6 9 -7 0 -10 -5 -8 -12z"/>
<path d="M8717 11709 c7 -7 15 -10 18 -7 3 3 -2 9 -12 12 -14 6 -15 5 -6 -5z"/>
<path d="M3891 11694 c0 -11 3 -14 6 -6 3 7 2 16 -1 19 -3 4 -6 -2 -5 -13z"/>
<path d="M3960 11701 c0 -6 4 -13 10 -16 6 -3 7 1 4 9 -7 18 -14 21 -14 7z"/>
<path d="M3915 11690 c-3 -5 -1 -10 4 -10 6 0 11 5 11 10 0 6 -2 10 -4 10 -3
0 -8 -4 -11 -10z"/>
<path d="M3696 11598 c3 -5 10 -6 15 -3 13 9 11 12 -6 12 -8 0 -12 -4 -9 -9z"/>
<path d="M8816 11573 c-4 -11 -1 -11 14 -3 24 13 25 17 5 17 -8 0 -16 -6 -19
-14z"/>
<path d="M8903 11503 c4 -3 0 -14 -9 -24 -12 -14 -13 -18 -2 -25 7 -4 10 -4 6
0 -9 11 15 35 27 28 6 -3 4 2 -4 11 -7 9 -16 17 -19 17 -3 0 -2 -3 1 -7z"/>
<path d="M8940 11425 c14 -17 30 -20 30 -4 0 5 -4 7 -10 4 -5 -3 -10 -1 -10 4
0 6 -5 11 -11 11 -8 0 -8 -5 1 -15z"/>
<path d="M9151 11339 c-1 -9 6 -20 15 -23 8 -3 13 -10 9 -15 -3 -5 -1 -12 5
-16 6 -4 8 -11 4 -16 -3 -6 1 -9 9 -7 9 2 23 -6 31 -17 15 -19 16 -19 9 -1 -4
12 -3 17 4 13 6 -4 16 -1 22 7 9 10 8 16 -4 26 -10 9 -15 9 -15 1 0 -6 5 -11
11 -11 5 0 7 -5 4 -11 -5 -7 -14 -4 -28 8 -11 10 -17 12 -12 4 5 -9 4 -12 -3
-7 -6 4 -8 14 -5 24 6 15 5 15 -10 3 -22 -18 -22 -7 0 15 16 16 16 16 -6 9
-18 -5 -22 -4 -16 5 5 8 4 11 -3 6 -5 -3 -13 0 -15 6 -4 8 -6 7 -6 -3z"/>
<path d="M9306 11105 c-8 -22 2 -41 24 -42 11 -1 18 2 15 8 -4 5 -13 9 -21 9
-8 0 -14 5 -14 11 0 5 4 7 10 4 6 -3 7 1 4 9 -8 20 -10 20 -18 1z"/>
<path d="M9395 10951 c-3 -5 -1 -12 5 -16 6 -4 7 -12 4 -18 -4 -7 -1 -6 7 2
11 10 11 15 1 18 -6 3 -10 9 -6 14 3 5 3 9 0 9 -3 0 -7 -4 -11 -9z"/>
<path d="M9530 10800 c6 -11 13 -20 16 -20 2 0 0 9 -6 20 -6 11 -13 20 -16 20
-2 0 0 -9 6 -20z"/>
<path d="M9597 10589 c7 -7 15 -10 18 -7 3 3 -2 9 -12 12 -14 6 -15 5 -6 -5z"/>
<path d="M2370 10585 c0 -7 30 -13 34 -7 3 4 -4 9 -15 9 -10 1 -19 0 -19 -2z"/>
<path d="M9670 10560 c-9 -6 -10 -10 -3 -10 6 0 15 5 18 10 8 12 4 12 -15 0z"/>
<path d="M9639 10531 c6 -10 9 -20 6 -22 -2 -2 9 -5 23 -5 26 -2 26 -1 5 9
-13 5 -23 16 -23 24 0 7 -5 13 -10 13 -7 0 -7 -6 -1 -19z"/>
<path d="M2032 10147 c-9 -11 -8 -13 6 -12 19 1 29 18 14 23 -5 1 -14 -3 -20
-11z"/>
<path d="M9786 10068 c3 -5 10 -6 15 -3 13 9 11 12 -6 12 -8 0 -12 -4 -9 -9z"/>
<path d="M9767 9959 c7 -7 15 -10 18 -7 3 3 -2 9 -12 12 -14 6 -15 5 -6 -5z"/>
<path d="M9776 9905 c4 -8 13 -15 21 -15 12 0 12 2 -1 15 -8 8 -17 15 -20 15
-3 0 -3 -7 0 -15z"/>
<path d="M1747 9824 c8 -21 32 -25 30 -6 0 10 -9 18 -18 18 -9 0 -15 -6 -12
-12z"/>
<path d="M9743 9777 c0 -7 9 -14 19 -14 10 -1 18 3 18 9 0 6 -3 8 -7 5 -3 -4
-11 -2 -18 3 -8 7 -12 6 -12 -3z"/>
<path d="M9900 9570 c-8 -5 -10 -10 -5 -10 6 0 17 5 25 10 8 5 11 10 5 10 -5
0 -17 -5 -25 -10z"/>
<path d="M9878 9433 c6 -2 10 -9 7 -14 -4 -5 1 -6 9 -3 20 8 11 24 -12 23 -11
0 -12 -2 -4 -6z"/>
<path d="M1090 8931 c0 -7 -5 -9 -12 -5 -7 5 -8 3 -3 -5 5 -9 10 -10 18 -2 6
6 8 14 4 18 -4 3 -7 1 -7 -6z"/>
<path d="M10140 8730 c0 -5 5 -10 10 -10 6 0 10 5 10 10 0 6 -4 10 -10 10 -5
0 -10 -4 -10 -10z"/>
<path d="M10147 8699 c7 -7 15 -10 18 -7 3 3 -2 9 -12 12 -14 6 -15 5 -6 -5z"/>
<path d="M997 8252 l-17 -37 20 24 c11 13 20 29 20 37 0 21 -3 17 -23 -24z"/>
<path d="M10456 7977 c3 -10 9 -15 12 -12 3 3 0 11 -7 18 -10 9 -11 8 -5 -6z"/>
<path d="M1059 7970 c-1 -5 -2 -16 -3 -22 -1 -7 -7 -12 -12 -11 -6 1 -11 -4
-11 -12 0 -13 26 -10 28 4 0 3 2 16 5 29 2 12 2 22 -1 22 -3 0 -6 -4 -6 -10z"/>
<path d="M1052 7901 c-11 -6 -10 -10 0 -19 11 -8 14 -7 14 9 0 10 0 19 -1 19
0 0 -6 -4 -13 -9z"/>
<path d="M1030 7843 c1 -18 18 -35 24 -24 4 6 4 16 1 21 -7 12 -25 13 -25 3z"/>
<path d="M10597 7733 c-11 -11 -8 -20 7 -20 8 0 12 6 9 14 -6 15 -7 15 -16 6z"/>
<path d="M435 7110 c-3 -5 -1 -10 4 -10 6 0 11 5 11 10 0 6 -2 10 -4 10 -3 0
-8 -4 -11 -10z"/>
<path d="M16 6283 c-6 -14 -5 -15 5 -6 7 7 10 15 7 18 -3 3 -9 -2 -12 -12z"/>
<path d="M10644 5878 c-14 -17 -15 -20 -2 -9 9 7 22 10 27 6 7 -3 8 0 5 9 -8
20 -7 20 -30 -6z"/>
<path d="M93 5775 c0 -8 4 -12 9 -9 5 3 6 10 3 15 -9 13 -12 11 -12 -6z"/>
<path d="M56 5768 c3 -5 10 -6 15 -3 13 9 11 12 -6 12 -8 0 -12 -4 -9 -9z"/>
<path d="M333 5537 c0 -8 6 -14 14 -14 9 0 10 4 2 14 -6 7 -12 13 -14 13 -1 0
-2 -6 -2 -13z"/>
<path d="M10596 5451 c-4 -6 -1 -11 6 -11 8 0 6 -5 -5 -11 -18 -10 -15 -29 5
-29 6 0 8 3 5 7 -4 3 -3 11 3 17 5 7 5 18 1 25 -6 9 -11 10 -15 2z"/>
<path d="M10563 5392 c-8 -5 -7 -11 2 -19 10 -10 14 -9 19 2 6 17 -5 26 -21
17z"/>
<path d="M10390 4700 c-13 -8 -12 -10 3 -10 9 0 17 5 17 10 0 12 -1 12 -20 0z"/>
<path d="M10444 4630 c0 -13 4 -16 10 -10 7 7 7 13 0 20 -6 6 -10 3 -10 -10z"/>
<path d="M10539 4453 c-1 -5 -1 -11 0 -15 0 -5 -7 -8 -16 -9 -14 0 -12 -3 5
-10 14 -5 20 -13 16 -20 -4 -8 -3 -9 5 -5 6 4 8 13 4 19 -11 17 -10 31 2 39 6
5 6 8 -2 8 -7 0 -14 -3 -14 -7z"/>
<path d="M10575 4296 c9 -13 22 -27 29 -29 8 -3 14 -17 14 -32 0 -33 13 -48
37 -39 16 6 15 8 -6 20 -15 8 -18 13 -9 14 13 0 13 2 1 9 -12 8 -13 12 -1 26
11 14 11 16 -1 13 -8 -2 -13 3 -11 11 3 12 1 12 -13 1 -14 -12 -18 -11 -26 1
-5 8 -9 17 -9 22 0 4 -5 7 -10 7 -6 0 -3 -11 5 -24z"/>
<path d="M10710 3958 c0 -4 4 -8 9 -8 6 0 12 4 15 8 3 5 -1 9 -9 9 -8 0 -15
-4 -15 -9z"/>
<path d="M10706 3792 c-3 -5 1 -9 9 -9 8 0 12 4 9 9 -3 4 -7 8 -9 8 -2 0 -6
-4 -9 -8z"/>
<path d="M385 3640 c-4 -6 -12 -7 -18 -3 -7 4 -7 0 1 -10 11 -13 17 -14 32 -5
10 7 16 16 14 20 -7 11 -22 10 -29 -2z"/>
<path d="M10865 3610 c3 -5 8 -10 11 -10 2 0 4 5 4 10 0 6 -5 10 -11 10 -5 0
-7 -4 -4 -10z"/>
<path d="M435 3189 c-4 -6 -4 -13 -1 -16 3 -4 6 -1 6 6 0 7 5 9 12 5 7 -4 8
-3 4 4 -9 15 -13 15 -21 1z"/>
<path d="M500 2990 c0 -5 7 -7 15 -4 8 4 15 8 15 10 0 2 -7 4 -15 4 -8 0 -15
-4 -15 -10z"/>
<path d="M610 2820 c-9 -6 -10 -10 -3 -10 6 0 15 5 18 10 8 12 4 12 -15 0z"/>
<path d="M718 2713 c7 -3 16 -2 19 1 4 3 -2 6 -13 5 -11 0 -14 -3 -6 -6z"/>
<path d="M11385 2630 c-3 -5 1 -13 10 -16 22 -9 29 1 11 15 -10 8 -16 9 -21 1z"/>
<path d="M11527 2413 c-12 -11 -8 -22 11 -32 14 -7 18 -6 18 9 0 15 -3 17 -15
7 -12 -10 -14 -9 -8 6 7 18 5 21 -6 10z"/>
<path d="M957 2399 c7 -7 15 -10 18 -7 3 3 -2 9 -12 12 -14 6 -15 5 -6 -5z"/>
<path d="M1035 2389 c-10 -15 3 -25 16 -12 7 7 7 13 1 17 -6 3 -14 1 -17 -5z"/>
<path d="M11476 2325 c-6 -16 9 -21 19 -5 3 5 12 7 20 3 8 -3 15 -1 15 4 0 15
-48 13 -54 -2z"/>
<path d="M11507 2301 c3 -11 13 -26 22 -33 13 -10 14 -10 4 2 -17 18 -17 38
-1 22 15 -15 38 -16 38 -1 0 5 -4 7 -10 4 -5 -3 -20 1 -34 10 -23 16 -24 15
-19 -4z"/>
<path d="M11574 2312 c4 -3 14 -7 22 -8 9 -1 13 0 10 4 -4 3 -14 7 -22 8 -9 1
-13 0 -10 -4z"/>
<path d="M1243 2262 c10 -10 14 -22 10 -25 -3 -4 -1 -7 5 -7 7 0 12 3 12 8 -1
11 -26 42 -35 42 -5 0 -1 -8 8 -18z"/>
<path d="M1284 2246 c4 -26 35 -42 49 -26 9 10 9 11 -1 6 -7 -5 -20 2 -32 16
-16 20 -18 20 -16 4z"/>
<path d="M1355 2219 c-4 -6 -4 -13 -1 -16 3 -4 6 -1 6 6 0 7 5 9 12 5 7 -4 8
-3 4 4 -9 15 -13 15 -21 1z"/>
<path d="M1645 2170 c-3 -5 3 -7 12 -6 10 2 22 -2 26 -8 6 -7 7 -6 5 3 -5 16
-35 24 -43 11z"/>
<path d="M12130 1766 c0 -2 6 -9 14 -15 11 -9 16 -9 22 0 4 8 3 9 -4 5 -7 -4
-12 -2 -12 3 0 6 -4 11 -10 11 -5 0 -10 -2 -10 -4z"/>
<path d="M12498 1588 c5 -5 16 -8 23 -6 8 3 3 7 -10 11 -17 4 -21 3 -13 -5z"/>
<path d="M12504 1555 c-4 -8 -10 -12 -15 -9 -5 3 -9 0 -9 -5 0 -15 37 -8 53 9
9 11 7 11 -7 0 -18 -14 -19 -13 -13 3 3 9 4 17 1 17 -2 0 -7 -7 -10 -15z"/>
<path d="M1997 1279 c7 -7 15 -10 18 -7 3 3 -2 9 -12 12 -14 6 -15 5 -6 -5z"/>
<path d="M2016 1221 c-5 -8 5 -20 31 -34 7 -4 10 -1 9 9 -3 20 -32 38 -40 25z
m29 -19 c-3 -3 -11 0 -18 7 -9 10 -8 11 6 5 10 -3 15 -9 12 -12z"/>
<path d="M2030 1170 c0 -5 5 -10 11 -10 5 0 7 5 4 10 -3 6 -8 10 -11 10 -2 0
-4 -4 -4 -10z"/>
<path d="M2003 1045 c0 -8 4 -12 9 -9 5 3 6 10 3 15 -9 13 -12 11 -12 -6z"/>
<path d="M1594 724 c-18 -14 -18 -15 4 -4 12 6 22 13 22 15 0 8 -5 6 -26 -11z"/>
<path d="M1469 578 c-1 -7 -1 -17 0 -22 1 -5 -4 -6 -12 -3 -9 3 -13 -2 -12
-16 1 -12 -3 -29 -9 -37 -6 -8 -1 -7 11 4 12 10 21 22 20 26 -1 5 7 15 17 23
10 8 16 19 12 25 -10 16 -26 15 -27 0z"/>
<path d="M1422 530 c0 -14 2 -19 5 -12 2 6 2 18 0 25 -3 6 -5 1 -5 -13z"/>
<path d="M1444 447 c12 -9 16 -19 11 -28 -5 -10 -5 -11 3 -4 21 19 17 37 -8
41 -23 4 -23 4 -6 -9z"/>
</g>
</svg>
